<svg width="48" height="48" viewBox="0 0 48 48" fill="none" xmlns="http://www.w3.org/2000/svg">
<path d="M40.5 23.5H40.22C39.07 18.36 34.48 14.5 29 14.5H25.5V13.22C27.24 12.6 28.5 10.95 28.5 9.00001C28.5 6.52001 26.48 4.50001 24 4.50001C21.52 4.50001 19.5 6.52001 19.5 9.00001C19.5 10.95 20.76 12.6 22.5 13.22V14.5H19C13.52 14.5 8.93 18.36 7.78 23.5H7.5C5.85 23.5 4.5 24.85 4.5 26.5V29.5C4.5 31.15 5.85 32.5 7.5 32.5H8.05C9.23 36.18 12.21 39.04 15.95 40.08C15.67 40.67 15.5 41.31 15.5 42C15.5 42.83 16.17 43.5 17 43.5H31C31.83 43.5 32.5 42.83 32.5 42C32.5 41.31 32.33 40.66 32.05 40.08C35.79 39.05 38.77 36.18 39.95 32.5H40.5C42.15 32.5 43.5 31.15 43.5 29.5V26.5C43.5 24.85 42.15 23.5 40.5 23.5ZM24 7.50001C24.83 7.50001 25.5 8.17001 25.5 9.00001C25.5 9.83001 24.83 10.5 24 10.5C23.17 10.5 22.5 9.83001 22.5 9.00001C22.5 8.17001 23.17 7.50001 24 7.50001ZM29 37.5H19C14.31 37.5 10.5 33.69 10.5 29V26C10.5 21.31 14.31 17.5 19 17.5H29C33.69 17.5 37.5 21.31 37.5 26V29C37.5 33.69 33.69 37.5 29 37.5Z" fill="black"/>
<path d="M18.5 21.5C16.85 21.5 15.5 22.85 15.5 24.5V27.5C15.5 29.15 16.85 30.5 18.5 30.5C20.15 30.5 21.5 29.15 21.5 27.5V24.5C21.5 22.85 20.15 21.5 18.5 21.5Z" fill="black"/>
<path d="M29.5 21.5C27.85 21.5 26.5 22.85 26.5 24.5V27.5C26.5 29.15 27.85 30.5 29.5 30.5C31.15 30.5 32.5 29.15 32.5 27.5V24.5C32.5 22.85 31.15 21.5 29.5 21.5Z" fill="black"/>
<path d="M13.53 7.42001L16.53 8.42001C16.69 8.47001 16.85 8.50001 17 8.50001C17.63 8.50001 18.21 8.10001 18.42 7.47001C18.68 6.68001 18.26 5.83001 17.47 5.57001L14.47 4.57001C13.69 4.31001 12.84 4.73001 12.57 5.52001C12.3 6.31001 12.73 7.16001 13.52 7.42001H13.53Z" fill="black"/>
<path d="M14 13.5C14.16 13.5 14.32 13.48 14.47 13.42L17.47 12.42C18.26 12.16 18.68 11.31 18.42 10.52C18.16 9.73001 17.31 9.31001 16.52 9.57001L13.52 10.57C12.73 10.83 12.31 11.68 12.57 12.47C12.78 13.1 13.36 13.5 13.99 13.5H14Z" fill="black"/>
<path d="M31 8.50001C31.16 8.50001 31.32 8.48001 31.47 8.42001L34.47 7.42001C35.26 7.16001 35.68 6.31001 35.42 5.52001C35.16 4.73001 34.31 4.31001 33.52 4.57001L30.52 5.57001C29.73 5.83001 29.31 6.68001 29.57 7.47001C29.78 8.10001 30.36 8.50001 30.99 8.50001H31Z" fill="black"/>
<path d="M30.53 12.42L33.53 13.42C33.69 13.47 33.85 13.5 34 13.5C34.63 13.5 35.21 13.1 35.42 12.47C35.68 11.68 35.26 10.83 34.47 10.57L31.47 9.57001C30.69 9.31001 29.83 9.73001 29.57 10.52C29.31 11.31 29.73 12.16 30.52 12.42H30.53Z" fill="black"/>
</svg>
