<svg width="25" height="24" viewBox="0 0 25 24" fill="none" xmlns="http://www.w3.org/2000/svg">
<circle cx="12.2188" cy="12" r="12" fill="#F2F2F2"/>
<mask id="mask0_144_696" style="mask-type:alpha" maskUnits="userSpaceOnUse" x="0" y="0" width="25" height="24">
<circle cx="12.2188" cy="12" r="12" fill="#0078E5"/>
</mask>
<g mask="url(#mask0_144_696)">
<path d="M12.1124 15.9734C12.1505 15.9734 12.1886 15.9734 12.2266 15.9734H12.2647H12.3028C14.4918 15.8973 16.2049 14.1271 16.2239 11.9191C16.2239 9.67301 14.3966 7.8457 12.1505 7.8457C9.90448 7.8457 8.07715 9.67301 8.07715 11.9191C8.11522 14.108 9.82831 15.8973 12.1124 15.9734Z" fill="white"/>
<path opacity="0.4" d="M12.1124 15.9734C12.1505 15.9734 12.1886 15.9734 12.2266 15.9734H12.2647H12.3028C14.4918 15.8973 16.2049 14.1271 16.2239 11.9191C16.2239 9.67301 14.3966 7.8457 12.1505 7.8457C9.90448 7.8457 8.07715 9.67301 8.07715 11.9191C8.11522 14.108 9.82831 15.8973 12.1124 15.9734Z" fill="#0078E5"/>
<path d="M17.947 19.113C14.8338 17.0548 9.79099 17.0548 6.6521 19.113C5.21131 20.0907 4.3623 21.4801 4.3623 22.9209C4.3623 24.3874 5.18558 25.7253 6.6521 26.703C8.22155 27.7321 10.2541 28.2724 12.2867 28.2724C14.3192 28.2724 16.3775 27.7578 17.9212 26.703C19.362 25.7253 20.2111 24.3359 20.2111 22.8951C20.2368 21.4286 19.4135 20.0907 17.947 19.113Z" fill="#0078E5"/>
</g>
</svg>