<svg width="61" height="60" viewBox="0 0 61 60" fill="none" xmlns="http://www.w3.org/2000/svg">
<circle cx="30.2188" cy="30" r="30" fill="#F2F2F2"/>
<mask id="mask0_144_680" style="mask-type:alpha" maskUnits="userSpaceOnUse" x="0" y="0" width="61" height="61">
<circle cx="30.2192" cy="30.0005" r="30" fill="#0078E5"/>
</mask>
<g mask="url(#mask0_144_680)">
<path d="M29.9549 39.9355C30.0501 39.9355 30.1453 39.9355 30.2404 39.9355H30.3357H30.4308C35.9032 39.7452 40.186 35.3196 40.2335 29.7996C40.2335 24.1845 35.6654 19.6162 30.0502 19.6162C24.435 19.6162 19.8667 24.1845 19.8667 29.7996C19.9619 35.272 24.2446 39.7452 29.9549 39.9355Z" fill="white"/>
<path opacity="0.4" d="M29.9549 39.9355C30.0501 39.9355 30.1453 39.9355 30.2404 39.9355H30.3357H30.4308C35.9032 39.7452 40.186 35.3196 40.2335 29.7996C40.2335 24.1845 35.6654 19.6162 30.0502 19.6162C24.435 19.6162 19.8667 24.1845 19.8667 29.7996C19.9619 35.272 24.2446 39.7452 29.9549 39.9355Z" fill="#0078E5"/>
<path d="M44.5432 47.7843C36.7603 42.6386 24.1533 42.6386 16.306 47.7843C12.704 50.2285 10.5815 53.7019 10.5815 57.3039C10.5815 60.9702 12.6397 64.3149 16.306 66.7591C20.2296 69.332 25.3111 70.6827 30.3924 70.6827C35.4738 70.6827 40.6196 69.3963 44.4788 66.7591C48.0808 64.3149 50.2035 60.8416 50.2035 57.2396C50.2679 53.5733 48.2095 50.2285 44.5432 47.7843Z" fill="#0078E5"/>
</g>
</svg>