<svg width="32" height="32" viewBox="0 0 32 32" fill="none" xmlns="http://www.w3.org/2000/svg">
  <circle cx="16" cy="16" r="16" fill="#FCE4EC"/>
  <circle cx="16" cy="12" r="6" fill="#FFDBCB"/>
  <path d="M16 18c-4 0-7 2-8 5v3h16v-3c-1-3-4-5-8-5z" fill="#FFDBCB"/>
  <path d="M10 8c2-2 6-2 8 0c2 2 4 2 4 4c0 2-2 2-4 2c-2 0-6 0-8-2c0-2 0-2 0-4z" fill="#8D4A2A"/>
  <circle cx="14" cy="11" r="0.5" fill="#333"/>
  <circle cx="18" cy="11" r="0.5" fill="#333"/>
  <path d="M15 13c0.5 0.5 1.5 0.5 2 0" stroke="#333" stroke-width="0.5" fill="none"/>
  <path d="M15.5 14c0.3 0.3 0.7 0.3 1 0" stroke="#333" stroke-width="0.5" fill="none"/>
  <circle cx="15" cy="15" r="0.3" fill="#FF69B4"/>
  <circle cx="17" cy="15" r="0.3" fill="#FF69B4"/>
</svg>