<svg width="32" height="32" viewBox="0 0 32 32" fill="none" xmlns="http://www.w3.org/2000/svg">
  <circle cx="16" cy="16" r="16" fill="#FFF3E0"/>
  <circle cx="16" cy="12" r="6" fill="#FFDBCB"/>
  <path d="M16 18c-4 0-7 2-8 5v3h16v-3c-1-3-4-5-8-5z" fill="#FFDBCB"/>
  <path d="M11 6c2-1 4-1 5 0c1 1 3 1 5 0c1 1 1 4 0 6c-1 1-3 1-5 0c-2-1-4-1-5 0c-1-2-1-5 0-6z" fill="#D4AF37"/>
  <circle cx="14" cy="11" r="0.5" fill="#333"/>
  <circle cx="18" cy="11" r="0.5" fill="#333"/>
  <path d="M15 13c0.5 0.5 1.5 0.5 2 0" stroke="#333" stroke-width="0.5" fill="none"/>
  <path d="M15.5 14c0.3 0.3 0.7 0.3 1 0" stroke="#333" stroke-width="0.5" fill="none"/>
  <circle cx="15" cy="15" r="0.3" fill="#FF1493"/>
  <circle cx="17" cy="15" r="0.3" fill="#FF1493"/>
  <path d="M13 9c0.5-0.5 1.5-0.5 2 0" stroke="#D4AF37" stroke-width="0.5" fill="none"/>
  <path d="M17 9c0.5-0.5 1.5-0.5 2 0" stroke="#D4AF37" stroke-width="0.5" fill="none"/>
</svg>