<svg width="33" height="32" viewBox="0 0 33 32" fill="none" xmlns="http://www.w3.org/2000/svg">
<circle cx="16.2188" cy="16" r="16" fill="#F2F2F2"/>
<mask id="mask0_144_688" style="mask-type:alpha" maskUnits="userSpaceOnUse" x="0" y="0" width="33" height="32">
<circle cx="16.2188" cy="16" r="16" fill="#0078E5"/>
</mask>
<g mask="url(#mask0_144_688)">
<path d="M16.0777 21.299C16.1284 21.299 16.1792 21.299 16.2299 21.299H16.2807H16.3315C19.2501 21.1975 21.5342 18.8372 21.5596 15.8932C21.5596 12.8984 19.1232 10.462 16.1285 10.462C13.1337 10.462 10.6973 12.8984 10.6973 15.8932C10.748 18.8118 13.0321 21.1975 16.0777 21.299Z" fill="white"/>
<path opacity="0.4" d="M16.0777 21.299C16.1284 21.299 16.1792 21.299 16.2299 21.299H16.2807H16.3315C19.2501 21.1975 21.5342 18.8372 21.5596 15.8932C21.5596 12.8984 19.1232 10.462 16.1285 10.462C13.1337 10.462 10.6973 12.8984 10.6973 15.8932C10.748 18.8118 13.0321 21.1975 16.0777 21.299Z" fill="#0078E5"/>
<path d="M23.858 25.4849C19.7071 22.7405 12.9834 22.7405 8.79818 25.4849C6.87712 26.7885 5.74512 28.6409 5.74512 30.562C5.74512 32.5174 6.84281 34.3012 8.79818 35.6048C10.8908 36.977 13.6009 37.6974 16.3109 37.6974C19.021 37.6974 21.7654 37.0113 23.8237 35.6048C25.7447 34.3012 26.8768 32.4488 26.8768 30.5277C26.9111 28.5723 25.8134 26.7885 23.858 25.4849Z" fill="#0078E5"/>
</g>
</svg>