<svg width="25" height="24" viewBox="0 0 25 24" fill="none" xmlns="http://www.w3.org/2000/svg">
<path fill-rule="evenodd" clip-rule="evenodd" d="M8.8125 1.05005C9.22671 1.05005 9.5625 1.38584 9.5625 1.80005V3.25006H16.0625V1.80005C16.0625 1.38584 16.3983 1.05005 16.8125 1.05005C17.2267 1.05005 17.5625 1.38584 17.5625 1.80005V3.25006H18.0625C20.1336 3.25006 21.8125 4.92899 21.8125 7.00006V9.70319V17.2501C21.8125 19.3211 20.1336 21.0001 18.0625 21.0001H7.5625C5.49143 21.0001 3.8125 19.3211 3.8125 17.2501V9.70319V7.00006C3.8125 4.92899 5.49143 3.25006 7.5625 3.25006H8.0625V1.80005C8.0625 1.38584 8.39829 1.05005 8.8125 1.05005ZM16.0625 4.75006V5.80005C16.0625 6.21426 16.3983 6.55005 16.8125 6.55005C17.2267 6.55005 17.5625 6.21426 17.5625 5.80005V4.75006H18.0625C19.3051 4.75006 20.3125 5.75742 20.3125 7.00006V8.95319H5.3125V7.00006C5.3125 5.75742 6.31986 4.75006 7.5625 4.75006H8.0625V5.80005C8.0625 6.21426 8.39829 6.55005 8.8125 6.55005C9.22671 6.55005 9.5625 6.21426 9.5625 5.80005V4.75006H16.0625ZM5.3125 10.4532H20.3125V17.2501C20.3125 18.4927 19.3051 19.5001 18.0625 19.5001H7.5625C6.31986 19.5001 5.3125 18.4927 5.3125 17.2501V10.4532Z" fill="#1A1A1A"/>
</svg>