<svg width="25" height="25" viewBox="0 0 25 25" fill="none" xmlns="http://www.w3.org/2000/svg">
<path fill-rule="evenodd" clip-rule="evenodd" d="M7.5625 3.75006C5.49143 3.75006 3.8125 5.42899 3.8125 7.50006V9.45319H21.8125V7.50006C21.8125 5.42899 20.1336 3.75006 18.0625 3.75006H7.5625ZM21.8125 10.9532H3.8125V17.7501C3.8125 19.8211 5.49143 21.5001 7.5625 21.5001H18.0625C20.1336 21.5001 21.8125 19.8211 21.8125 17.7501V10.9532ZM9.5625 2.30005C9.5625 1.88584 9.22671 1.55005 8.8125 1.55005C8.39829 1.55005 8.0625 1.88584 8.0625 2.30005V6.30005C8.0625 6.71426 8.39829 7.05005 8.8125 7.05005C9.22671 7.05005 9.5625 6.71426 9.5625 6.30005V2.30005ZM17.5625 2.30005C17.5625 1.88584 17.2267 1.55005 16.8125 1.55005C16.3983 1.55005 16.0625 1.88584 16.0625 2.30005V6.30005C16.0625 6.71426 16.3983 7.05005 16.8125 7.05005C17.2267 7.05005 17.5625 6.71426 17.5625 6.30005V2.30005Z" fill="#1A1A1A"/>
</svg>