<svg width="36" height="36" viewBox="0 0 36 36" fill="none" xmlns="http://www.w3.org/2000/svg">
<g clip-path="url(#clip0_12426_74817)">
<path d="M11.4248 0.75H23.9893L34.3496 11.1104V31.3135C34.3495 33.444 32.4905 35.25 30.0957 35.25H11.3135C8.90809 35.25 7.04989 33.4431 7.0498 31.3135V4.68652C7.0498 2.57744 8.99713 0.750079 11.4248 0.75Z" fill="white" stroke="#DBDBDB" stroke-width="1.5"/>
<path d="M24.3229 7.344V0L35.0998 10.8H27.9152C24.6821 10.8 24.1732 8.496 24.3229 7.344Z" fill="#D4D4D8"/>
<rect x="0.899902" y="17.1016" width="25.5" height="13.5" rx="2.7" fill="#155EEF"/>
<path d="M5.36735 26.9491V21.0091H7.40735C8.03235 21.0091 8.56735 21.1291 9.01235 21.3691C9.46235 21.6091 9.80485 21.9516 10.0399 22.3966C10.2749 22.8416 10.3924 23.3691 10.3924 23.9791C10.3924 24.5841 10.2699 25.1116 10.0249 25.5616C9.77985 26.0066 9.42235 26.3491 8.95235 26.5891C8.48735 26.8291 7.92985 26.9491 7.27985 26.9491H5.36735ZM7.28735 25.8841C7.90735 25.8841 8.38485 25.7166 8.71985 25.3816C9.05985 25.0466 9.22985 24.5791 9.22985 23.9791C9.22985 23.3741 9.06735 22.9041 8.74235 22.5691C8.41735 22.2341 7.95235 22.0666 7.34735 22.0666H6.49985V25.8841H7.28735ZM13.8132 27.0541C13.2632 27.0541 12.7832 26.9291 12.3732 26.6791C11.9682 26.4291 11.6557 26.0741 11.4357 25.6141C11.2157 25.1491 11.1057 24.6041 11.1057 23.9791C11.1057 23.3541 11.2157 22.8116 11.4357 22.3516C11.6557 21.8866 11.9682 21.5291 12.3732 21.2791C12.7832 21.0291 13.2632 20.9041 13.8132 20.9041C14.3632 20.9041 14.8407 21.0291 15.2457 21.2791C15.6557 21.5291 15.9707 21.8866 16.1907 22.3516C16.4107 22.8116 16.5207 23.3541 16.5207 23.9791C16.5207 24.5991 16.4107 25.1416 16.1907 25.6066C15.9707 26.0716 15.6557 26.4291 15.2457 26.6791C14.8407 26.9291 14.3632 27.0541 13.8132 27.0541ZM13.8132 25.9891C14.1232 25.9891 14.3957 25.9066 14.6307 25.7416C14.8657 25.5766 15.0457 25.3441 15.1707 25.0441C15.2957 24.7391 15.3582 24.3841 15.3582 23.9791C15.3582 23.5691 15.2957 23.2141 15.1707 22.9141C15.0457 22.6091 14.8657 22.3741 14.6307 22.2091C14.4007 22.0441 14.1282 21.9616 13.8132 21.9616C13.4982 21.9616 13.2232 22.0441 12.9882 22.2091C12.7582 22.3741 12.5807 22.6091 12.4557 22.9141C12.3307 23.2141 12.2682 23.5691 12.2682 23.9791C12.2682 24.3841 12.3307 24.7391 12.4557 25.0441C12.5807 25.3441 12.7607 25.5766 12.9957 25.7416C13.2307 25.9066 13.5032 25.9891 13.8132 25.9891ZM22.1637 25.7266C21.9487 26.1466 21.6512 26.4741 21.2712 26.7091C20.8912 26.9391 20.4587 27.0541 19.9737 27.0541C19.4387 27.0541 18.9637 26.9241 18.5487 26.6641C18.1337 26.3991 17.8087 26.0316 17.5737 25.5616C17.3437 25.0916 17.2287 24.5541 17.2287 23.9491C17.2287 23.3541 17.3437 22.8266 17.5737 22.3666C17.8087 21.9066 18.1362 21.5491 18.5562 21.2941C18.9812 21.0341 19.4687 20.9041 20.0187 20.9041C20.5137 20.9041 20.9412 21.0216 21.3012 21.2566C21.6612 21.4916 21.9462 21.8166 22.1562 22.2316L21.1737 22.7041C21.0537 22.4691 20.8862 22.2866 20.6712 22.1566C20.4612 22.0266 20.2262 21.9616 19.9662 21.9616C19.6612 21.9616 19.3887 22.0466 19.1487 22.2166C18.9137 22.3816 18.7287 22.6166 18.5937 22.9216C18.4637 23.2216 18.3987 23.5641 18.3987 23.9491C18.3987 24.3441 18.4637 24.6966 18.5937 25.0066C18.7287 25.3166 18.9137 25.5591 19.1487 25.7341C19.3887 25.9041 19.6612 25.9891 19.9662 25.9891C20.2162 25.9891 20.4462 25.9241 20.6562 25.7941C20.8662 25.6641 21.0412 25.4816 21.1812 25.2466L22.1637 25.7266Z" fill="white"/>
</g>
<defs>
<clipPath id="clip0_12426_74817">
<rect width="36" height="36" fill="white"/>
</clipPath>
</defs>
</svg>
