<svg width="24" height="24" viewBox="0 0 24 24" fill="none" xmlns="http://www.w3.org/2000/svg">
<g clip-path="url(#clip0_12420_72545)">
<path d="M7.61719 0.5H15.9932L22.9004 7.40723V20.876C22.9001 22.2962 21.6609 23.5 20.0645 23.5H7.54199C5.93872 23.4998 4.70045 22.2955 4.7002 20.876V3.12402C4.70039 1.71807 5.99881 0.5 7.61719 0.5Z" fill="white" stroke="#DBDBDB"/>
<path d="M16.2156 4.896V0L23.4002 7.2H18.6104C16.4551 7.2 16.1158 5.664 16.2156 4.896Z" fill="#D4D4D8"/>
<rect x="0.600098" y="11.3984" width="21" height="9" rx="1.8" fill="#155EEF"/>
<path d="M3.77908 17.9634V14.0034H5.13908C5.55575 14.0034 5.91242 14.0834 6.20908 14.2434C6.50908 14.4034 6.73742 14.6318 6.89408 14.9284C7.05075 15.2251 7.12908 15.5768 7.12908 15.9834C7.12908 16.3868 7.04742 16.7384 6.88408 17.0384C6.72075 17.3351 6.48242 17.5634 6.16908 17.7234C5.85908 17.8834 5.48742 17.9634 5.05408 17.9634H3.77908ZM5.05908 17.2534C5.47242 17.2534 5.79075 17.1418 6.01408 16.9184C6.24075 16.6951 6.35408 16.3834 6.35408 15.9834C6.35408 15.5801 6.24575 15.2668 6.02908 15.0434C5.81242 14.8201 5.50242 14.7084 5.09908 14.7084H4.53408V17.2534H5.05908ZM9.40963 18.0334C9.04296 18.0334 8.72296 17.9501 8.44963 17.7834C8.17963 17.6168 7.9713 17.3801 7.82463 17.0734C7.67796 16.7634 7.60463 16.4001 7.60463 15.9834C7.60463 15.5668 7.67796 15.2051 7.82463 14.8984C7.9713 14.5884 8.17963 14.3501 8.44963 14.1834C8.72296 14.0168 9.04296 13.9334 9.40963 13.9334C9.7763 13.9334 10.0946 14.0168 10.3646 14.1834C10.638 14.3501 10.848 14.5884 10.9946 14.8984C11.1413 15.2051 11.2146 15.5668 11.2146 15.9834C11.2146 16.3968 11.1413 16.7584 10.9946 17.0684C10.848 17.3784 10.638 17.6168 10.3646 17.7834C10.0946 17.9501 9.7763 18.0334 9.40963 18.0334ZM9.40963 17.3234C9.6163 17.3234 9.79796 17.2684 9.95463 17.1584C10.1113 17.0484 10.2313 16.8934 10.3146 16.6934C10.398 16.4901 10.4396 16.2534 10.4396 15.9834C10.4396 15.7101 10.398 15.4734 10.3146 15.2734C10.2313 15.0701 10.1113 14.9134 9.95463 14.8034C9.8013 14.6934 9.61963 14.6384 9.40963 14.6384C9.19963 14.6384 9.0163 14.6934 8.85963 14.8034C8.7063 14.9134 8.58796 15.0701 8.50463 15.2734C8.4213 15.4734 8.37963 15.7101 8.37963 15.9834C8.37963 16.2534 8.4213 16.4901 8.50463 16.6934C8.58796 16.8934 8.70796 17.0484 8.86463 17.1584C9.0213 17.2684 9.20296 17.3234 9.40963 17.3234ZM14.9767 17.1484C14.8333 17.4284 14.635 17.6468 14.3817 17.8034C14.1283 17.9568 13.84 18.0334 13.5167 18.0334C13.16 18.0334 12.8433 17.9468 12.5667 17.7734C12.29 17.5968 12.0733 17.3518 11.9167 17.0384C11.7633 16.7251 11.6867 16.3668 11.6867 15.9634C11.6867 15.5668 11.7633 15.2151 11.9167 14.9084C12.0733 14.6018 12.2917 14.3634 12.5717 14.1934C12.855 14.0201 13.18 13.9334 13.5467 13.9334C13.8767 13.9334 14.1617 14.0118 14.4017 14.1684C14.6417 14.3251 14.8317 14.5418 14.9717 14.8184L14.3167 15.1334C14.2367 14.9768 14.125 14.8551 13.9817 14.7684C13.8417 14.6818 13.685 14.6384 13.5117 14.6384C13.3083 14.6384 13.1267 14.6951 12.9667 14.8084C12.81 14.9184 12.6867 15.0751 12.5967 15.2784C12.51 15.4784 12.4667 15.7068 12.4667 15.9634C12.4667 16.2268 12.51 16.4618 12.5967 16.6684C12.6867 16.8751 12.81 17.0368 12.9667 17.1534C13.1267 17.2668 13.3083 17.3234 13.5117 17.3234C13.6783 17.3234 13.8317 17.2801 13.9717 17.1934C14.1117 17.1068 14.2283 16.9851 14.3217 16.8284L14.9767 17.1484ZM17.3165 15.9034L18.6815 17.9634H17.7565L16.8665 16.5234L16.0165 17.9634H15.0865L16.4415 15.8734L15.1665 14.0034H16.0815L16.9015 15.2684L17.6865 14.0034H18.6015L17.3165 15.9034Z" fill="white"/>
</g>
<defs>
<clipPath id="clip0_12420_72545">
<rect width="24" height="24" fill="white"/>
</clipPath>
</defs>
</svg>
