<svg width="36" height="36" viewBox="0 0 36 36" fill="none" xmlns="http://www.w3.org/2000/svg">
<g clip-path="url(#clip0_12426_74806)">
<path d="M11.4248 0.75H23.9893L34.3496 11.1104V31.3135C34.3495 33.444 32.4905 35.25 30.0957 35.25H11.3135C8.90809 35.25 7.04989 33.4431 7.0498 31.3135V4.68652C7.0498 2.57744 8.99713 0.750079 11.4248 0.75Z" fill="white" stroke="#DBDBDB" stroke-width="1.5"/>
<path d="M24.3229 7.344V0L35.0998 10.8H27.9152C24.6821 10.8 24.1732 8.496 24.3229 7.344Z" fill="#D4D4D8"/>
<rect x="0.899902" y="17.1016" width="30.5" height="13.5" rx="2.7" fill="#155EEF"/>
<path d="M5.16838 26.9491V21.0091H7.20838C7.83338 21.0091 8.36838 21.1291 8.81338 21.3691C9.26338 21.6091 9.60588 21.9516 9.84088 22.3966C10.0759 22.8416 10.1934 23.3691 10.1934 23.9791C10.1934 24.5841 10.0709 25.1116 9.82588 25.5616C9.58088 26.0066 9.22338 26.3491 8.75338 26.5891C8.28838 26.8291 7.73088 26.9491 7.08088 26.9491H5.16838ZM7.08838 25.8841C7.70838 25.8841 8.18588 25.7166 8.52088 25.3816C8.86088 25.0466 9.03088 24.5791 9.03088 23.9791C9.03088 23.3741 8.86838 22.9041 8.54338 22.5691C8.21838 22.2341 7.75338 22.0666 7.14838 22.0666H6.30088V25.8841H7.08838ZM13.6142 27.0541C13.0642 27.0541 12.5842 26.9291 12.1742 26.6791C11.7692 26.4291 11.4567 26.0741 11.2367 25.6141C11.0167 25.1491 10.9067 24.6041 10.9067 23.9791C10.9067 23.3541 11.0167 22.8116 11.2367 22.3516C11.4567 21.8866 11.7692 21.5291 12.1742 21.2791C12.5842 21.0291 13.0642 20.9041 13.6142 20.9041C14.1642 20.9041 14.6417 21.0291 15.0467 21.2791C15.4567 21.5291 15.7717 21.8866 15.9917 22.3516C16.2117 22.8116 16.3217 23.3541 16.3217 23.9791C16.3217 24.5991 16.2117 25.1416 15.9917 25.6066C15.7717 26.0716 15.4567 26.4291 15.0467 26.6791C14.6417 26.9291 14.1642 27.0541 13.6142 27.0541ZM13.6142 25.9891C13.9242 25.9891 14.1967 25.9066 14.4317 25.7416C14.6667 25.5766 14.8467 25.3441 14.9717 25.0441C15.0967 24.7391 15.1592 24.3841 15.1592 23.9791C15.1592 23.5691 15.0967 23.2141 14.9717 22.9141C14.8467 22.6091 14.6667 22.3741 14.4317 22.2091C14.2017 22.0441 13.9292 21.9616 13.6142 21.9616C13.2992 21.9616 13.0242 22.0441 12.7892 22.2091C12.5592 22.3741 12.3817 22.6091 12.2567 22.9141C12.1317 23.2141 12.0692 23.5691 12.0692 23.9791C12.0692 24.3841 12.1317 24.7391 12.2567 25.0441C12.3817 25.3441 12.5617 25.5766 12.7967 25.7416C13.0317 25.9066 13.3042 25.9891 13.6142 25.9891ZM21.9647 25.7266C21.7497 26.1466 21.4522 26.4741 21.0722 26.7091C20.6922 26.9391 20.2597 27.0541 19.7747 27.0541C19.2397 27.0541 18.7647 26.9241 18.3497 26.6641C17.9347 26.3991 17.6097 26.0316 17.3747 25.5616C17.1447 25.0916 17.0297 24.5541 17.0297 23.9491C17.0297 23.3541 17.1447 22.8266 17.3747 22.3666C17.6097 21.9066 17.9372 21.5491 18.3572 21.2941C18.7822 21.0341 19.2697 20.9041 19.8197 20.9041C20.3147 20.9041 20.7422 21.0216 21.1022 21.2566C21.4622 21.4916 21.7472 21.8166 21.9572 22.2316L20.9747 22.7041C20.8547 22.4691 20.6872 22.2866 20.4722 22.1566C20.2622 22.0266 20.0272 21.9616 19.7672 21.9616C19.4622 21.9616 19.1897 22.0466 18.9497 22.2166C18.7147 22.3816 18.5297 22.6166 18.3947 22.9216C18.2647 23.2216 18.1997 23.5641 18.1997 23.9491C18.1997 24.3441 18.2647 24.6966 18.3947 25.0066C18.5297 25.3166 18.7147 25.5591 18.9497 25.7341C19.1897 25.9041 19.4622 25.9891 19.7672 25.9891C20.0172 25.9891 20.2472 25.9241 20.4572 25.7941C20.6672 25.6641 20.8422 25.4816 20.9822 25.2466L21.9647 25.7266ZM25.4745 23.8591L27.522 26.9491H26.1345L24.7995 24.7891L23.5245 26.9491H22.1295L24.162 23.8141L22.2495 21.0091H23.622L24.852 22.9066L26.0295 21.0091H27.402L25.4745 23.8591Z" fill="white"/>
</g>
<defs>
<clipPath id="clip0_12426_74806">
<rect width="36" height="36" fill="white"/>
</clipPath>
</defs>
</svg>
