<svg width="25" height="24" viewBox="0 0 25 24" fill="none" xmlns="http://www.w3.org/2000/svg">
<path fill-rule="evenodd" clip-rule="evenodd" d="M6.09375 5.75C6.09375 4.50736 7.10111 3.5 8.34375 3.5H11.8439V7.25015C11.8439 9.32122 13.5229 11.0001 15.5939 11.0001H19.0938V18.25C19.0938 19.4926 18.0864 20.5 16.8438 20.5H8.34375C7.10111 20.5 6.09375 19.4926 6.09375 18.25V5.75ZM18.8927 9.50015C18.7843 9.26128 18.634 9.041 18.4464 8.85064L13.8347 4.17073C13.6879 4.02179 13.5225 3.89544 13.3439 3.79394V7.25015C13.3439 8.49279 14.3513 9.50015 15.5939 9.50015H18.8927ZM8.34375 2C6.27268 2 4.59375 3.67894 4.59375 5.75V18.25C4.59375 20.321 6.27268 22 8.34375 22H16.8438C18.9148 22 20.5938 20.321 20.5938 18.25V10.4299C20.5938 9.44488 20.2062 8.4994 19.5148 7.79779L14.9031 3.11788C14.1983 2.40268 13.2361 2 12.232 2H8.34375Z" fill="#1F1F1F"/>
</svg>