<svg width="174" height="169" viewBox="0 0 174 169" fill="none" xmlns="http://www.w3.org/2000/svg">
<path d="M148.465 112.922C137.675 98.0708 116.89 94.7787 102.039 105.568C87.1881 116.358 83.896 137.144 94.6857 151.995C105.475 166.845 125.109 161.676 132.269 147.176C148.438 144.727 159.255 127.772 148.465 112.922Z" fill="#D74A51"/>
<path d="M84.802 81.4403C82.5661 83.0647 88.2175 131.978 88.2175 131.978L131.304 100.673C131.304 100.673 87.0379 79.8158 84.802 81.4403Z" fill="#D74A51"/>
<path d="M79.2355 151.716C90.0252 136.865 86.7331 116.08 71.8823 105.29C57.0315 94.5002 36.2458 97.7924 25.4561 112.643C14.6663 127.494 25.6496 144.569 41.6523 146.898C48.9781 161.519 68.4458 166.567 79.2355 151.716Z" fill="#D74A51"/>
<path d="M89.503 81.4407C87.2672 79.8162 42.4946 100.306 42.4946 100.306L85.5815 131.61C85.5815 131.61 91.7389 83.0651 89.503 81.4407Z" fill="#D74A51"/>
<path d="M20.9468 97.8644C38.4049 103.537 57.156 93.9827 62.8285 76.5246C68.501 59.0664 58.9468 40.3153 41.4887 34.6428C24.0306 28.9704 11.1851 44.6926 13.9153 60.6317C2.27406 72.117 3.48864 92.1919 20.9468 97.8644Z" fill="#D74A51"/>
<path d="M90.9556 85.913C91.8096 83.2846 58.4873 47.035 58.4873 47.035L42.0296 97.6867C42.0296 97.6867 90.1016 88.5414 90.9556 85.913Z" fill="#D74A51"/>
<path d="M54.1521 25.7877C54.1521 44.1443 69.033 59.0253 87.3896 59.0253C105.746 59.0253 120.627 44.1443 120.627 25.7877C120.627 7.43113 101.705 0.0727921 87.3896 7.5949C72.8691 0.0725243 54.1521 7.43113 54.1521 25.7877Z" fill="#D74A51"/>
<path d="M87.1524 88.6769C89.9161 88.6769 114.094 45.7837 114.094 45.7837L60.836 45.7837C60.836 45.7837 84.3887 88.6769 87.1524 88.6769Z" fill="#D74A51"/>
<path d="M132.964 35.0933C115.505 40.7658 105.951 59.5169 111.624 76.9751C117.296 94.4332 136.047 103.987 153.505 98.3149C170.964 92.6424 172.115 72.3724 160.537 61.0822C163.204 44.9479 150.422 29.4208 132.964 35.0933Z" fill="#D74A51"/>
<path d="M83.35 85.9124C84.204 88.5408 132.469 98.2809 132.469 98.2809L116.012 47.6292C116.012 47.6292 82.496 83.2839 83.35 85.9124Z" fill="#D74A51"/>
<path d="M83.0834 61.7452C83.6588 57.3097 90.0801 57.3097 90.6554 61.7452V61.7452C91.0694 64.937 95.0046 66.2156 97.2157 63.8767V63.8767C100.288 60.6266 105.483 64.4009 103.342 68.3274V68.3274C101.8 71.153 104.232 74.5005 107.396 73.9079V73.9079C111.792 73.0845 113.776 79.1915 109.736 81.1093V81.1093C106.828 82.4894 106.828 86.6271 109.736 88.0072V88.0072C113.776 89.925 111.792 96.032 107.396 95.2085V95.2085C104.232 94.616 101.8 97.9635 103.342 100.789V100.789C105.483 104.716 100.288 108.49 97.2157 105.24V105.24C95.0046 102.901 91.0694 104.179 90.6554 107.371V107.371C90.0801 111.807 83.6588 111.807 83.0834 107.371V107.371C82.6694 104.179 78.7342 102.901 76.5232 105.24V105.24C73.4506 108.49 68.2557 104.716 70.3973 100.789V100.789C71.9384 97.9635 69.5063 94.616 66.3429 95.2085V95.2085C61.9467 96.032 59.9624 89.925 64.003 88.0072V88.0072C66.9106 86.6271 66.9106 82.4894 64.003 81.1093V81.1093C59.9624 79.1915 61.9467 73.0845 66.3429 73.9079V73.9079C69.5063 74.5005 71.9384 71.153 70.3973 68.3274V68.3274C68.2557 64.4009 73.4506 60.6266 76.5232 63.8767V63.8767C78.7342 66.2156 82.6694 64.937 83.0834 61.7452V61.7452Z" fill="#F4B442" stroke="#F4B542" stroke-width="2"/>
</svg>
