<svg width="71" height="70" viewBox="0 0 71 70" fill="none" xmlns="http://www.w3.org/2000/svg">
<path d="M64.7918 40.5419V47.221C64.7918 57.8377 58.4626 64.1669 47.846 64.1669H23.4043C15.9668 64.1669 10.6001 61.046 8.0918 55.5044L8.41263 55.271L22.7626 45.646C25.096 44.071 28.3918 44.246 30.4626 46.0544L31.4543 46.871C33.7293 48.8252 37.4043 48.8252 39.6793 46.871L51.8126 36.4585C54.0876 34.5044 57.7626 34.5044 60.0376 36.4585L64.7918 40.5419Z" fill="#0078E5"/>
<path opacity="0.4" d="M61.7877 23.3334H53.2127C49.5085 23.3334 47.2918 21.1167 47.2918 17.4125V8.83754C47.2918 7.67087 47.5252 6.67921 47.9335 5.83337C47.9043 5.83337 47.8752 5.83337 47.846 5.83337H23.4043C12.7877 5.83337 6.4585 12.1625 6.4585 22.7792V47.2209C6.4585 50.4 7.01266 53.1709 8.09183 55.5042L8.41266 55.2709L22.7627 45.6459C25.096 44.0709 28.3918 44.2459 30.4627 46.0542L31.4543 46.8709C33.7293 48.825 37.4043 48.825 39.6793 46.8709L51.8127 36.4584C54.0877 34.5042 57.7627 34.5042 60.0377 36.4584L64.7918 40.5417V22.7792C64.7918 22.75 64.7918 22.7209 64.7918 22.6917C63.946 23.1 62.9543 23.3334 61.7877 23.3334Z" fill="#0078E5"/>
<path d="M61.7873 2.91663H53.2123C49.5082 2.91663 47.2915 5.13329 47.2915 8.83746V17.4125C47.2915 21.1166 49.5082 23.3333 53.2123 23.3333H61.7873C65.4915 23.3333 67.7082 21.1166 67.7082 17.4125V8.83746C67.7082 5.13329 65.4915 2.91663 61.7873 2.91663ZM56.0707 19.1625C55.9832 19.25 55.779 19.3666 55.6332 19.3666L52.5998 19.8041C52.5123 19.8333 52.3957 19.8333 52.3082 19.8333C51.8707 19.8333 51.4915 19.6875 51.229 19.3958C50.879 19.0458 50.7332 18.55 50.8207 18.025L51.2582 14.9916C51.2873 14.8458 51.3748 14.6416 51.4623 14.5541L56.4207 9.59579C56.5082 9.79996 56.5957 10.0333 56.6832 10.2666C56.7998 10.5 56.9165 10.7041 57.0332 10.9083C57.1207 11.0833 57.2373 11.2583 57.354 11.375C57.4707 11.55 57.5873 11.725 57.6748 11.8125C57.7332 11.9 57.7623 11.9291 57.7915 11.9583C58.054 12.2791 58.3457 12.5708 58.6082 12.775C58.6665 12.8333 58.7248 12.8916 58.754 12.8916C58.8998 13.0083 59.0748 13.1541 59.1915 13.2416C59.3665 13.3583 59.5123 13.475 59.6873 13.5625C59.8915 13.6791 60.1248 13.7958 60.3582 13.9125C60.5915 14.0291 60.8248 14.1166 61.029 14.175L56.0707 19.1625ZM63.0415 12.1916L62.1082 13.125C62.0498 13.2125 61.9623 13.2416 61.8748 13.2416C61.8457 13.2416 61.8165 13.2416 61.7873 13.2416C59.6873 12.6291 58.0248 10.9666 57.4123 8.86663C57.3832 8.74996 57.4123 8.63329 57.4998 8.54579L58.4623 7.58329C60.0373 6.00829 61.5248 6.03746 63.0707 7.58329C63.8582 8.37079 64.2373 9.12913 64.2373 9.88746C64.2082 10.6458 63.829 11.4041 63.0415 12.1916Z" fill="#0078E5"/>
<path d="M25.4165 26.9791C26.6244 26.9793 27.604 27.9586 27.604 29.1666C27.604 30.3746 26.6245 31.354 25.4165 31.3541H15.2085C14.0004 31.3541 13.021 30.3747 13.021 29.1666C13.021 27.9585 14.0004 26.9791 15.2085 26.9791H25.4165ZM35.6255 18.2291C36.8334 18.2294 37.813 19.2087 37.813 20.4166C37.813 21.6246 36.8334 22.6039 35.6255 22.6041H15.2085C14.0004 22.6041 13.021 21.6247 13.021 20.4166C13.021 19.2085 14.0004 18.2291 15.2085 18.2291H35.6255Z" fill="#0078E5"/>
</svg>