<svg width="25" height="25" viewBox="0 0 25 25" fill="none" xmlns="http://www.w3.org/2000/svg">
<path d="M12.1253 6.72283C11.9199 6.72283 11.7235 6.63862 11.582 6.48984C10.5465 5.40167 9.21557 4.92257 7.91429 5.03838C6.49526 5.16467 5.13085 5.99736 4.24623 7.48509C2.8023 9.91345 3.18854 13.2253 5.1426 15.1174C5.1426 15.1174 8.91757 19.1672 10.2714 20.0836C11.6252 21 12.6252 21 13.9724 20.09C15.3196 19.1801 19.108 15.1174 19.108 15.1174C21.062 13.2253 21.4483 9.91345 20.0043 7.48509C19.1197 5.99736 17.7553 5.16467 16.3363 5.03838C15.035 4.92257 13.7041 5.40167 12.6686 6.48984C12.527 6.63862 12.3306 6.72283 12.1253 6.72283Z" fill="#0078E5" stroke="#0078E5" stroke-linecap="round" stroke-linejoin="round"/>
</svg>