<svg width="25" height="24" viewBox="0 0 25 24" fill="none" xmlns="http://www.w3.org/2000/svg">
<path d="M22.25 8.69001C22.25 9.88001 22.06 10.98 21.73 12H2.77C2.44 10.98 2.25 9.88001 2.25 8.69001C2.25 5.60001 4.74 3.10001 7.81 3.10001C9.62 3.10001 11.24 3.98001 12.25 5.33001C13.26 3.98001 14.88 3.10001 16.69 3.10001C19.76 3.10001 22.25 5.60001 22.25 8.69001Z" fill="#0078E5"/>
<path opacity="0.4" d="M21.73 12C20.15 17 15.28 19.99 12.87 20.81C12.53 20.93 11.97 20.93 11.63 20.81C9.22002 19.99 4.35002 17 2.77002 12H21.73Z" fill="#0078E5"/>
</svg>
