<svg width="25" height="24" viewBox="0 0 25 24" fill="none" xmlns="http://www.w3.org/2000/svg">
<path d="M6.5 19.0403C8.11524 20.4182 10.2105 21.25 12.5 21.25C17.6086 21.25 21.75 17.1086 21.75 12C21.75 6.89137 17.6086 2.75 12.5 2.75C7.39137 2.75 3.25 6.89137 3.25 12C3.25 13.6335 3.67341 15.1681 4.41647 16.5" stroke="#1A1A1A" stroke-width="1.5" stroke-linecap="round"/>
<path d="M10 9.617C10.0031 9.08964 10.1646 8.57538 10.4634 8.14085C10.7622 7.70632 11.1846 7.37156 11.676 7.17994C12.1673 6.98832 12.7048 6.94867 13.2189 7.06614C13.7331 7.18362 14.2 7.45279 14.5594 7.83878C14.9187 8.22476 15.1538 8.70978 15.2343 9.23097C15.3147 9.75216 15.2368 10.2855 15.0106 10.7619C14.7844 11.2383 14.4203 11.6357 13.9655 11.9027V11.9027C13.2324 12.3332 12.46 12.9797 12.46 13.8298V14" stroke="#0078E5" stroke-width="1.5" stroke-linecap="round" stroke-linejoin="round"/>
<circle cx="12.5" cy="16.75" r="1" fill="#0078E5"/>
</svg>