<svg width="24" height="25" viewBox="0 0 24 25" fill="none" xmlns="http://www.w3.org/2000/svg">
<path fill-rule="evenodd" clip-rule="evenodd" d="M4.13269 7.00706C2.79606 7.94271 2 9.47165 2 11.1032V18.4999C2 20.7091 3.79086 22.4999 6 22.4999H18C20.2091 22.4999 22 20.7091 22 18.4999V11.1032C22 9.47165 21.2039 7.94271 19.8673 7.00706L14.2938 3.10564C12.9166 2.14154 11.0834 2.14155 9.70615 3.10564L4.13269 7.00706ZM11.25 18.4999C11.25 18.9099 11.59 19.2499 12 19.2499C12.41 19.2499 12.75 18.9099 12.75 18.4999V15.4999C12.75 15.0899 12.41 14.7499 12 14.7499C11.59 14.7499 11.25 15.0899 11.25 15.4999V18.4999Z" fill="#0078E5"/>
</svg>