<svg width="13" height="13" viewBox="0 0 13 13" fill="none" xmlns="http://www.w3.org/2000/svg">
<path d="M2.23145 9.04373L3.22979 8.33062C3.5878 8.0749 4.07821 8.11549 4.3893 8.42658L4.81343 8.85071C5.04775 9.08503 5.42764 9.08503 5.66196 8.85071L6.85644 7.65623M8.47519 6.03748L11.2502 8.34998" stroke="#0078E5" stroke-width="0.75" stroke-linecap="round"/>
<circle cx="0.925" cy="0.925" r="0.925" transform="matrix(-1 0 0 1 5.7002 3.72498)" stroke="#0078E5" stroke-width="0.75"/>
<path d="M2 5.575C2 5.2102 2 4.79375 2 4.375C2 2.99429 3.11929 1.875 4.5 1.875L8.75 1.875C10.1307 1.875 11.25 2.99429 11.25 4.375L11.25 8.625C11.25 10.0057 10.1307 11.125 8.75 11.125L4.5 11.125C3.11929 11.125 2 10.0057 2 8.625L2 7.425" stroke="#1A1A1A" stroke-width="0.75" stroke-linecap="round"/>
</svg>