<svg width="24" height="24" viewBox="0 0 24 24" fill="none" xmlns="http://www.w3.org/2000/svg">
<path d="M3.21265 17.0867L5.20934 15.6605C5.92535 15.1491 6.90617 15.2302 7.52836 15.8524L8.37662 16.7007C8.84525 17.1693 9.60504 17.1693 10.0737 16.7007L12.4626 14.3117M15.7001 11.0742L21.2501 15.6992" stroke="#0078E5" stroke-width="1.5" stroke-linecap="round"/>
<circle cx="1.85" cy="1.85" r="1.85" transform="matrix(-1 0 0 1 10.1501 6.44922)" stroke="#0078E5" stroke-width="1.5"/>
<path d="M2.75 10.15C2.75 9.42039 2.75 8.58751 2.75 7.75C2.75 4.98858 4.98858 2.75 7.75 2.75L16.25 2.75C19.0114 2.75 21.25 4.98858 21.25 7.75L21.25 16.25C21.25 19.0114 19.0114 21.25 16.25 21.25L7.75 21.25C4.98858 21.25 2.75 19.0114 2.75 16.25L2.75 13.85" stroke="#1A1A1A" stroke-width="1.5" stroke-linecap="round"/>
</svg>
