<svg width="17" height="17" viewBox="0 0 17 17" fill="none" xmlns="http://www.w3.org/2000/svg">
<path d="M2.91683 11.5978C2.38698 10.6875 2.0835 9.6292 2.0835 8.50004C2.0835 5.09428 4.84441 2.33337 8.25016 2.33337C11.6559 2.33337 14.4168 5.09428 14.4168 8.50004C14.4168 11.9058 11.6559 14.6667 8.25016 14.6667C6.72382 14.6667 5.32699 14.1122 4.25016 13.1936" stroke="#1A1A1A" stroke-linecap="round"/>
<path d="M8.25 7.03015C8.52614 7.03015 8.75 7.25401 8.75 7.53015V10.3612H9.25L9.35059 10.371C9.57852 10.4175 9.75 10.6195 9.75 10.8612C9.74986 11.1027 9.57839 11.3039 9.35059 11.3505L9.25 11.3612H8.25C7.97395 11.3612 7.75015 11.1372 7.75 10.8612V8.03015H7.25C6.97387 8.03015 6.75002 7.80628 6.75 7.53015C6.75 7.25401 6.97386 7.03015 7.25 7.03015H8.25Z" fill="#0078E5"/>
<circle cx="8.25016" cy="5.83329" r="0.666667" fill="#0078E5"/>
</svg>