<svg width="25" height="24" viewBox="0 0 25 24" fill="none" xmlns="http://www.w3.org/2000/svg">
<path d="M4.25 16.6466C3.45523 15.2812 3 13.6937 3 12C3 6.89137 7.14137 2.75 12.25 2.75C17.3586 2.75 21.5 6.89137 21.5 12C21.5 17.1086 17.3586 21.25 12.25 21.25C9.96048 21.25 7.86524 20.4182 6.25 19.0403" stroke="#1A1A1A" stroke-width="1.5" stroke-linecap="round"/>
<path fill-rule="evenodd" clip-rule="evenodd" d="M10 10.5452C10 10.131 10.3358 9.79517 10.75 9.79517H12.25C12.6642 9.79517 13 10.131 13 10.5452V14.7914H13.75C14.1642 14.7914 14.5 15.1272 14.5 15.5414C14.5 15.9556 14.1642 16.2914 13.75 16.2914H12.25C11.8358 16.2914 11.5 15.9556 11.5 15.5414V15.5V11.2952H10.75C10.3358 11.2952 10 10.9594 10 10.5452Z" fill="#0078E5"/>
<circle cx="12.25" cy="8" r="1" fill="#0078E5"/>
</svg>