<svg width="17" height="17" viewBox="0 0 17 17" fill="none" xmlns="http://www.w3.org/2000/svg">
<path d="M13.8878 3.37007C12.3908 1.87306 9.96369 1.87306 8.46669 3.37007L7.05247 4.78429C6.85721 4.97955 6.85721 5.29613 7.05247 5.49139C7.24773 5.68665 7.56432 5.68665 7.75958 5.49139L9.17379 4.07718C10.2803 2.97069 12.0742 2.97069 13.1807 4.07718C14.2872 5.18366 14.2872 6.97763 13.1807 8.08412L11.7665 9.49833C11.5713 9.69359 11.5713 10.0102 11.7665 10.2054C11.9618 10.4007 12.2784 10.4007 12.4736 10.2054L13.8878 8.79122C15.3848 7.29421 15.3848 4.86708 13.8878 3.37007Z" fill="#1A1A1A"/>
<path d="M5.87396 7.37701C6.06922 7.18175 6.06922 6.86517 5.87396 6.6699C5.6787 6.47464 5.36212 6.47464 5.16685 6.6699L3.75264 8.08412C2.25563 9.58113 2.25563 12.0083 3.75264 13.5053C5.24965 15.0023 7.67678 15.0023 9.17379 13.5053L10.588 12.0911C10.7833 11.8958 10.7833 11.5792 10.588 11.3839C10.3927 11.1887 10.0762 11.1887 9.8809 11.3839L8.46669 12.7982C7.3602 13.9046 5.56623 13.9046 4.45975 12.7982C3.35326 11.6917 3.35326 9.89771 4.45975 8.79122L5.87396 7.37701Z" fill="#1A1A1A"/>
<path d="M7.05247 9.49832C6.85721 9.69358 6.85721 10.0102 7.05247 10.2054C7.24773 10.4007 7.56431 10.4007 7.75957 10.2054L10.588 7.377C10.7833 7.18174 10.7833 6.86515 10.588 6.66989C10.3927 6.47463 10.0762 6.47463 9.88089 6.66989L7.05247 9.49832Z" fill="#0078E5"/>
</svg>