<svg width="172" height="68" viewBox="0 0 172 68" fill="none" xmlns="http://www.w3.org/2000/svg">
<path d="M88.8379 10.5414C86.7594 15.7884 71.0137 55.4213 67.387 64.5499C67.026 65.4584 67.6997 66.3648 68.6613 66.1885C73.3634 65.3264 85.197 61.2683 92.4161 42.1656L105.694 7.70391C105.877 7.22895 106.547 7.22259 106.726 7.69919C109.792 15.8782 125.741 58.4371 126.665 61.3039C127.687 64.4765 130.55 66.5234 133.923 66.4211C136.377 66.4211 138.626 65.1929 140.058 63.146C141.387 61.0992 141.796 58.5406 140.875 56.1867C140.875 56.1867 127.533 16.6062 124.722 10.3367C121.912 4.06723 118.384 0.102342 113.783 0C111.023 0 108.263 1.33047 106.116 3.88906C104.275 2.14922 102.026 1.12578 99.7771 1.12578C95.381 1.12578 91.1893 4.60547 88.8379 10.5414Z" fill="#0078E5"/>
<path fill-rule="evenodd" clip-rule="evenodd" d="M64.0533 18.6603C69.7638 32.5642 65.8207 49.7532 52.5132 55.3786C49.9141 59.6743 46.4832 62.6404 43.6762 63.6632C40.4533 64.8905 37.2303 65.6065 33.4876 65.9133C29.329 66.3224 23.5069 66.4247 16.0214 66.4247C12.3827 66.4247 8.52184 66.4247 4.3703 66.4247C2.18703 66.4247 0.21875 64.5837 0.21875 62.4358V3.93208C0.21875 1.78421 1.88219 0.0454569 4.06546 0.0454569C9.05578 -0.0568211 19.2444 0.0454569 26.7299 0.0454569H34.7352C48.6534 0 58.9008 6.11486 64.0533 18.6603ZM51.3696 54.1512C53.3449 50.776 54.5925 46.5825 54.5925 41.8777C54.5925 32.9794 51.3807 11.889 25.7013 11.0708H19.5674C18.9436 11.0708 18.1119 11.0708 16.4484 11.0708C15.8246 11.0708 15.2009 11.3776 14.785 11.7867C14.2652 12.1959 14.0572 12.8095 14.0572 13.4232V53.1038C14.0572 54.3312 15.0969 55.3539 16.4484 55.3539C16.6564 55.3539 16.9683 55.3539 17.2802 55.3539H21.9586C31.5234 55.3539 47.7308 55.3786 51.3696 54.1512Z" fill="#0078E5"/>
<path d="M171.816 20.6658C171.816 15.8032 167.874 11.8613 163.011 11.8613H139.288C138.91 11.8613 138.604 12.1679 138.604 12.5461V12.5461C138.604 17.4087 142.545 21.3506 147.408 21.3506H171.131C171.509 21.3506 171.816 21.044 171.816 20.6658V20.6658Z" fill="#0078E5"/>
<path d="M159.269 -3.84855e-07C154.407 -1.72305e-07 150.465 3.94189 150.465 8.80445L150.465 32.5276C150.465 32.9058 150.771 33.2124 151.15 33.2124V33.2124C156.012 33.2124 159.954 29.2705 159.954 24.4079L159.954 0.684791C159.954 0.306591 159.647 -4.01387e-07 159.269 -3.84855e-07V-3.84855e-07Z" fill="#0078E5"/>
</svg>
