<svg width="25" height="24" viewBox="0 0 25 24" fill="none" xmlns="http://www.w3.org/2000/svg">
<path fill-rule="evenodd" clip-rule="evenodd" d="M12.9375 7C12.1091 7 11.4375 6.32843 11.4375 5.5C11.4375 4.67157 12.1091 4 12.9375 4C13.7659 4 14.4375 4.67157 14.4375 5.5C14.4375 6.32843 13.7659 7 12.9375 7ZM12.9375 13.5C12.1091 13.5 11.4375 12.8285 11.4375 12C11.4375 11.1716 12.1091 10.5 12.9375 10.5C13.7659 10.5 14.4375 11.1716 14.4375 12C14.4375 12.8285 13.7659 13.5 12.9375 13.5ZM11.4375 18.5C11.4375 19.3285 12.1091 20 12.9375 20C13.7659 20 14.4375 19.3285 14.4375 18.5C14.4375 17.6716 13.7659 17 12.9375 17C12.1091 17 11.4375 17.6716 11.4375 18.5Z" fill="#1A1A1A"/>
</svg>