<svg width="25" height="25" viewBox="0 0 25 25" fill="none" xmlns="http://www.w3.org/2000/svg">
<g opacity="0.4">
<path d="M15.8924 18.5C15.8924 20.33 14.3924 21.83 12.5624 21.83C11.6524 21.83 10.8124 21.45 10.2124 20.85C9.61242 20.25 9.23242 19.41 9.23242 18.5" fill="#0078E5"/>
<path d="M15.8924 18.5C15.8924 20.33 14.3924 21.83 12.5624 21.83C11.6524 21.83 10.8124 21.45 10.2124 20.85C9.61242 20.25 9.23242 19.41 9.23242 18.5" stroke="#0078E5" stroke-width="1.5" stroke-miterlimit="10"/>
</g>
<path d="M20.8579 17.655C20.6296 17.8569 20.3507 18.0176 20.0284 18.1185C17.6057 18.875 15.084 19.2522 12.5625 19.25C10.041 19.2522 7.51927 18.875 5.09664 18.1185C4.77428 18.0176 4.49536 17.8569 4.26708 17.655C3.80006 17.2674 3.55017 16.7339 3.56297 16.1617C3.57123 15.7925 3.68888 15.4072 3.92815 15.0347L5.21172 13.0232C5.56546 12.4728 5.84846 11.4955 5.84846 10.8598V9.57884C5.84846 6.08295 8.85106 3.25868 12.5625 3.25002C16.2739 3.25868 19.2765 6.08295 19.2765 9.57884V10.8598C19.2765 11.4955 19.5595 12.4728 19.9133 13.0232L21.1968 15.0347C21.4361 15.4072 21.5538 15.7925 21.562 16.1617C21.5748 16.7339 21.3249 17.2674 20.8579 17.655Z" fill="#0078E5"/>
<path d="M21.2412 15.0347C21.979 16.1923 21.3928 17.6915 20.0284 18.1185C15.1973 19.6272 9.97205 19.6272 5.14098 18.1185C3.68559 17.663 3.12971 16.2777 3.92815 15.0347L5.21172 13.0232C5.56546 12.4728 5.84846 11.4955 5.84846 10.8598V9.57884C5.84846 6.07758 8.8603 3.25 12.5796 3.25M3.88381 15.0347C3.14601 16.1923 3.73221 17.6915 5.09664 18.1185C9.92771 19.6272 15.153 19.6272 19.984 18.1185C21.4394 17.663 21.9953 16.2777 21.1968 15.0347L19.9133 13.0232C19.5595 12.4728 19.2765 11.4955 19.2765 10.8598V9.57884C19.2765 6.07758 16.2647 3.25 12.5454 3.25" stroke="#0078E5" stroke-width="1.5" stroke-miterlimit="10" stroke-linecap="round"/>
<path d="M12.5625 8.5V10.5" stroke="white" stroke-width="1.5" stroke-miterlimit="10" stroke-linecap="round"/>
</svg>