<svg width="24" height="24" viewBox="0 0 24 24" fill="none" xmlns="http://www.w3.org/2000/svg">
<path opacity="0.4" d="M17.53 7.77C17.46 7.76 17.39 7.76 17.32 7.77C15.77 7.72 14.54 6.45 14.54 4.89C14.54 3.3 15.83 2 17.43 2C19.02 2 20.32 3.29 20.32 4.89C20.31 6.45 19.08 7.72 17.53 7.77Z" fill="#0078E5"/>
<path opacity="0.4" d="M20.6848 14.1972C19.4326 14.868 17.6772 15.1184 16.0559 14.9485C16.4808 14.215 16.7044 13.4011 16.7156 12.5425C16.7156 11.6481 16.4696 10.7984 16 10.056C17.6548 9.8771 19.4102 10.1275 20.6737 10.7983C22.4402 11.7285 22.4402 13.258 20.6848 14.1972Z" fill="#0078E5"/>
<path opacity="0.4" d="M6.44039 7.77C6.51039 7.76 6.58039 7.76 6.65039 7.77C8.20039 7.72 9.43039 6.45 9.43039 4.89C9.43039 3.3 8.14039 2 6.54039 2C4.95039 2 3.65039 3.29 3.65039 4.89C3.66039 6.45 4.89039 7.72 6.44039 7.77Z" fill="#0078E5"/>
<path opacity="0.4" d="M7.27097 12.538C7.27097 13.404 7.51398 14.2253 7.95371 14.9664C6.32208 15.1003 4.62102 14.8324 3.37126 14.1986C1.54291 13.2611 1.54291 11.7345 3.37126 10.7971C4.60945 10.1542 6.3568 9.89535 8 10.0382C7.52555 10.7881 7.27097 11.6363 7.27097 12.538Z" fill="#0078E5"/>
<path d="M12.12 15.87C12.04 15.86 11.9501 15.86 11.8601 15.87C10.0201 15.81 8.55005 14.3 8.55005 12.44C8.55005 10.54 10.0801 9 11.9901 9C13.8901 9 15.43 10.54 15.43 12.44C15.43 14.3 13.97 15.81 12.12 15.87Z" fill="#0078E5"/>
<path d="M8.32845 17.7994C6.55718 18.7354 6.55718 20.2739 8.32845 21.2006C10.346 22.2665 13.654 22.2665 15.6716 21.2006C17.4428 20.2646 17.4428 18.7261 15.6716 17.7994C13.6657 16.7335 10.3578 16.7335 8.32845 17.7994Z" fill="#0078E5"/>
</svg>
