<svg width="25" height="24" viewBox="0 0 25 24" fill="none" xmlns="http://www.w3.org/2000/svg">
<path d="M13.5312 9.85742C13.5312 9.44321 13.1955 9.10742 12.7812 9.10742C12.367 9.10742 12.0312 9.44321 12.0312 9.85742V11.5717C12.0312 11.9859 12.367 12.3217 12.7812 12.3217C13.1955 12.3217 13.5312 11.9859 13.5312 11.5717V9.85742Z" fill="#666666"/>
<path fill-rule="evenodd" clip-rule="evenodd" d="M11.448 2C9.92921 2 8.698 3.23122 8.698 4.75V6H5.53125C4.01247 6 2.78125 7.23122 2.78125 8.75V10.0461C2.78125 11.238 3.54908 12.2942 4.68286 12.662L11.3159 14.8132C12.2684 15.1221 13.2941 15.1221 14.2466 14.8132L20.2812 12.856V17.25C20.2812 19.0449 18.8262 20.5 17.0312 20.5H8.53125C6.73632 20.5 5.28125 19.0449 5.28125 17.25V15.7502C5.28125 15.3359 4.94546 15.0002 4.53125 15.0002C4.11704 15.0002 3.78125 15.3359 3.78125 15.7502V17.25C3.78125 19.8734 5.9079 22 8.53125 22H17.0312C19.6546 22 21.7812 19.8734 21.7812 17.25V12.1676C22.4013 11.6559 22.7812 10.8846 22.7812 10.0461V8.75C22.7812 7.23122 21.55 6 20.0312 6H16.8647V4.75C16.8647 3.23122 15.6335 2 14.1147 2H11.448ZM15.3647 6V4.75C15.3647 4.05964 14.805 3.5 14.1147 3.5H11.448C10.7576 3.5 10.198 4.05964 10.198 4.75V6H12.7812C13.1955 6 13.5312 6.33579 13.5312 6.75C13.5312 7.16421 13.1955 7.5 12.7812 7.5H5.53125C4.84089 7.5 4.28125 8.05964 4.28125 8.75V10.0461C4.28125 10.5879 4.63026 11.068 5.14562 11.2351L11.7786 13.3864C12.4303 13.5977 13.1322 13.5977 13.7839 13.3864L20.4169 11.2351C20.9322 11.068 21.2812 10.5879 21.2812 10.0461V8.75C21.2812 8.05964 20.7216 7.5 20.0312 7.5H15.3633V6H15.3647Z" fill="#666666"/>
</svg>