<svg width="24" height="24" viewBox="0 0 24 24" fill="none" xmlns="http://www.w3.org/2000/svg">
<g clip-path="url(#clip0_12420_72521)">
<path d="M7.61719 0.5H15.9932L22.9004 7.40723V20.876C22.9001 22.2962 21.6609 23.5 20.0645 23.5H7.54199C5.93872 23.4998 4.70045 22.2955 4.7002 20.876V3.12402C4.70039 1.71807 5.99881 0.5 7.61719 0.5Z" fill="white" stroke="#DBDBDB"/>
<path d="M16.2156 4.896V0L23.4002 7.2H18.6104C16.4551 7.2 16.1158 5.664 16.2156 4.896Z" fill="#D4D4D8"/>
<rect x="0.600098" y="11.3984" width="16" height="9" rx="1.8" fill="#E62E05"/>
<path d="M5.29313 14.0034C5.76979 14.0034 6.14313 14.1201 6.41313 14.3534C6.68646 14.5868 6.82313 14.9101 6.82313 15.3234C6.82313 15.7334 6.69146 16.0551 6.42813 16.2884C6.16479 16.5218 5.80146 16.6384 5.33813 16.6384H4.67813V17.9634H3.92313V14.0034H5.29313ZM5.18813 15.9484C5.45813 15.9484 5.66979 15.8934 5.82313 15.7834C5.97646 15.6734 6.05313 15.5201 6.05313 15.3234C6.05313 15.1268 5.97646 14.9718 5.82313 14.8584C5.66979 14.7451 5.45813 14.6884 5.18813 14.6884H4.67813V15.9484H5.18813ZM8.73551 14.0034C9.21217 14.0034 9.58551 14.1201 9.85551 14.3534C10.1288 14.5868 10.2655 14.9101 10.2655 15.3234C10.2655 15.7334 10.1338 16.0551 9.87051 16.2884C9.60717 16.5218 9.24384 16.6384 8.78051 16.6384H8.12051V17.9634H7.36551V14.0034H8.73551ZM8.63051 15.9484C8.90051 15.9484 9.11217 15.8934 9.26551 15.7834C9.41884 15.6734 9.49551 15.5201 9.49551 15.3234C9.49551 15.1268 9.41884 14.9718 9.26551 14.8584C9.11217 14.7451 8.90051 14.6884 8.63051 14.6884H8.12051V15.9484H8.63051ZM12.3702 17.9634H11.6152V14.7084H10.4952V14.0034H13.4852V14.7084H12.3702V17.9634Z" fill="white"/>
</g>
<defs>
<clipPath id="clip0_12420_72521">
<rect width="24" height="24" fill="white"/>
</clipPath>
</defs>
</svg>
