<svg width="17" height="16" viewBox="0 0 17 16" fill="none" xmlns="http://www.w3.org/2000/svg">
<path d="M3.32324 8.50004V3.16671C3.32324 2.43033 3.9202 1.83337 4.65658 1.83337H11.6566C12.393 1.83337 12.9899 2.43033 12.9899 3.16671L12.9899 8.50004M5.769 4.41378H9.63776M5.769 6.3396H8.1515" stroke="#1F1F1F" stroke-linecap="round"/>
<path d="M14.3231 12.8334V9.50004C14.3231 9.13185 14.0246 8.83337 13.6564 8.83337H10.6918C10.3236 8.83337 10.0251 9.13185 10.0251 9.50004V9.83337C10.0251 10.2016 9.72662 10.5 9.35843 10.5H6.95439C6.5862 10.5 6.28773 10.2016 6.28773 9.83337V9.50004C6.28773 9.13185 5.98925 8.83337 5.62106 8.83337H2.65641C2.28822 8.83337 1.98975 9.13185 1.98975 9.50004V12.8334C1.98975 13.5698 2.5867 14.1667 3.32308 14.1667H12.9897C13.7261 14.1667 14.3231 13.5698 14.3231 12.8334Z" stroke="black"/>
</svg>