<svg width="25" height="24" viewBox="0 0 25 24" fill="none" xmlns="http://www.w3.org/2000/svg">
<path d="M22.5 5.99999V8.41999C22.5 9.99999 21.5 11 19.92 11H16.5V4.00999C16.5 2.89999 17.41 1.98999 18.52 1.99999C19.61 2.00999 20.61 2.44999 21.33 3.16999C22.05 3.89999 22.5 4.89999 22.5 5.99999Z" fill="#0078E5"/>
<path opacity="0.4" d="M2.5 20V7V6C2.5 3.79 3.5 2 6.5 2H7.5H18.5C17.4 2 16.5 2.9 16.5 4V20C16.5 21.1046 15.6046 22 14.5 22H4.5C3.39543 22 2.5 21.1046 2.5 20Z" fill="#0078E5"/>
<path d="M12.5 12.26H9.5C9.09 12.26 8.75 12.6 8.75 13.01C8.75 13.42 9.09 13.76 9.5 13.76H12.5C12.91 13.76 13.25 13.42 13.25 13.01C13.25 12.6 12.91 12.26 12.5 12.26Z" fill="#0078E5"/>
<path d="M9.5 9.76001H12.5C12.91 9.76001 13.25 9.42001 13.25 9.01001C13.25 8.60001 12.91 8.26001 12.5 8.26001H9.5C9.09 8.26001 8.75 8.60001 8.75 9.01001C8.75 9.42001 9.09 9.76001 9.5 9.76001Z" fill="#0078E5"/>
<path d="M6.46997 8.01001C5.90997 8.01001 5.46997 8.46001 5.46997 9.01001C5.46997 9.56001 5.91997 10.01 6.46997 10.01C7.01997 10.01 7.46997 9.56001 7.46997 9.01001C7.46997 8.46001 7.01997 8.01001 6.46997 8.01001Z" fill="#0078E5"/>
<path d="M6.46997 12.01C5.90997 12.01 5.46997 12.46 5.46997 13.01C5.46997 13.56 5.91997 14.01 6.46997 14.01C7.01997 14.01 7.46997 13.56 7.46997 13.01C7.46997 12.46 7.01997 12.01 6.46997 12.01Z" fill="#0078E5"/>
</svg>
