<svg width="25" height="24" viewBox="0 0 25 24" fill="none" xmlns="http://www.w3.org/2000/svg">
<path fill-rule="evenodd" clip-rule="evenodd" d="M13.1765 4.50049C11.1043 4.50049 9.22953 5.33989 7.87133 6.69903C7.14971 7.42114 6.32786 8.37242 5.67884 9.15366C5.635 9.20644 5.592 9.25836 5.54995 9.30931H8.83585C9.25006 9.30931 9.58585 9.6451 9.58585 10.0593C9.58585 10.4735 9.25006 10.8093 8.83585 10.8093H3.98291C3.5687 10.8093 3.23291 10.4735 3.23291 10.0593V5.20637C3.23291 4.79216 3.5687 4.45637 3.98291 4.45637C4.39712 4.45637 4.73291 4.79216 4.73291 5.20637V7.94621C5.35646 7.20334 6.11786 6.33165 6.81031 5.63873C8.43834 4.00958 10.6903 3.00049 13.1765 3.00049C18.147 3.00049 22.1765 7.02993 22.1765 12.0005C22.1765 16.9711 18.147 21.0005 13.1765 21.0005C9.07229 21.0005 5.61154 18.2539 4.52833 14.5001C4.41349 14.1021 4.64301 13.6864 5.04099 13.5716C5.43896 13.4567 5.85468 13.6862 5.96952 14.0842C6.87244 17.2132 9.75832 19.5005 13.1765 19.5005C17.3186 19.5005 20.6765 16.1426 20.6765 12.0005C20.6765 7.85835 17.3186 4.50049 13.1765 4.50049Z" fill="#1F1F1F"/>
</svg>