<svg width="24" height="24" viewBox="0 0 24 24" fill="none" xmlns="http://www.w3.org/2000/svg">
<path d="M4.56488 17.6163C5.01399 18.3942 6.00867 18.6607 6.78655 18.2116C7.8707 17.5857 9.22612 18.3686 9.22612 19.6207C9.22612 20.5193 9.95459 21.248 10.8531 21.248H13.1471C14.0456 21.248 14.7741 20.5194 14.7741 19.6208C14.7741 18.3686 16.1296 17.5857 17.2139 18.2117C17.9919 18.6609 18.9866 18.3943 19.4358 17.6164L20.5832 15.6291C21.0323 14.8511 20.7657 13.8563 19.9877 13.4071C18.9034 12.7811 18.9033 11.216 19.9876 10.59C20.7655 10.1408 21.0321 9.14612 20.5829 8.3682M3.41737 15.6288C2.96826 14.8509 3.23483 13.8561 4.01275 13.407C5.09697 12.781 5.09704 11.216 4.01286 10.5901C3.23501 10.141 2.9685 9.14637 3.41759 8.36852L4.56523 6.38077C5.01428 5.60297 6.00909 5.33654 6.78695 5.78564C7.87092 6.41147 9.22612 5.62933 9.22612 4.37782C9.22612 3.47988 9.95404 2.75195 10.852 2.75195H13.1482C14.0462 2.75195 14.7741 3.47988 14.7741 4.37783C14.7741 5.62932 16.1294 6.41142 17.2134 5.78557C17.9914 5.33642 18.9864 5.60285 19.4355 6.38071" stroke="#1A1A1A" stroke-width="1.5" stroke-linecap="round"/>
<circle cx="12" cy="12" r="3.25" stroke="#0078E5" stroke-width="1.5"/>
</svg>