<svg width="17" height="17" viewBox="0 0 17 17" fill="none" xmlns="http://www.w3.org/2000/svg">
<path d="M3.63701 12.2442C3.93641 12.7628 4.59953 12.9404 5.11812 12.641C5.84089 12.2237 6.74449 12.7457 6.74449 13.5804C6.74449 14.1795 7.23014 14.6653 7.82913 14.6653H9.35851C9.95751 14.6653 10.4432 14.1796 10.4432 13.5805C10.4432 12.7457 11.3468 12.2238 12.0697 12.6411C12.5883 12.9405 13.2515 12.7628 13.5509 12.2442L14.3159 10.9193C14.6153 10.4007 14.4376 9.73748 13.9189 9.43804C13.196 9.02068 13.196 7.97727 13.9188 7.55994C14.4374 7.26052 14.6151 6.59737 14.3157 6.07876M2.872 10.9191C2.57259 10.4005 2.75031 9.73737 3.26892 9.43795C3.99173 9.02064 3.99178 7.97732 3.26899 7.56002C2.75043 7.26063 2.57275 6.59754 2.87215 6.07897L3.63723 4.7538C3.93661 4.23528 4.59981 4.05765 5.11838 4.35705C5.84103 4.77428 6.74449 4.25285 6.74449 3.4185C6.74449 2.81988 7.22978 2.33459 7.8284 2.33459H9.35924C9.95787 2.33459 10.4432 2.81988 10.4432 3.41851C10.4432 4.25284 11.3467 4.77424 12.0694 4.35701C12.588 4.05757 13.2513 4.23519 13.5507 4.75377" stroke="#1A1A1A" stroke-linecap="round"/>
<circle cx="8.59391" cy="8.50004" r="2.16667" stroke="#0078E5"/>
</svg>