<svg width="17" height="17" viewBox="0 0 17 17" fill="none" xmlns="http://www.w3.org/2000/svg">
<path d="M8.20463 8.37955C8.13818 8.64758 8.30159 8.91872 8.56962 8.98518C8.83765 9.05163 9.1088 8.88822 9.17525 8.62019L8.20463 8.37955ZM14.2062 3.63082C14.4626 3.52826 14.5873 3.23727 14.4847 2.98088C14.3822 2.72449 14.0912 2.59978 13.8348 2.70234L14.2062 3.63082ZM13.6868 7.49986C13.6868 7.776 13.9107 7.99986 14.1868 7.99986C14.463 7.99987 14.6868 7.77601 14.6868 7.49987L13.6868 7.49986ZM14.1869 2.99963L14.6869 2.99964C14.6869 2.86703 14.6342 2.73985 14.5405 2.64608C14.4467 2.55231 14.3195 2.49963 14.1869 2.49963V2.99963ZM9.68677 2.49963C9.41063 2.49963 9.18677 2.72349 9.18677 2.99963C9.18677 3.27578 9.41063 3.49963 9.68677 3.49963V2.49963ZM8.68994 8.49987C9.17525 8.62019 9.1752 8.6204 9.17515 8.6206C9.17513 8.62066 9.17508 8.62085 9.17505 8.62097C9.17499 8.62121 9.17494 8.62143 9.17489 8.62163C9.17479 8.62203 9.17471 8.62235 9.17465 8.62259C9.17452 8.62307 9.17448 8.62323 9.17452 8.62308C9.1746 8.62277 9.17501 8.62121 9.17579 8.61842C9.17734 8.61284 9.18034 8.60235 9.18504 8.58719C9.19442 8.55688 9.21057 8.50789 9.2354 8.44213C9.28505 8.31064 9.36945 8.11202 9.50403 7.86151C9.7729 7.36099 10.2434 6.6508 11.0407 5.85347L10.6872 5.49991L10.3336 5.14636C9.46429 6.01569 8.93616 6.80548 8.62309 7.38827C8.46669 7.67942 8.36429 7.91829 8.29987 8.08887C8.26767 8.17416 8.24497 8.24235 8.22977 8.29146C8.22216 8.31601 8.21644 8.3358 8.21233 8.35056C8.21028 8.35794 8.20863 8.36407 8.20736 8.36891C8.20672 8.37133 8.20618 8.37343 8.20573 8.37521C8.2055 8.37609 8.2053 8.3769 8.20512 8.37762C8.20502 8.37798 8.20494 8.37833 8.20486 8.37865C8.20482 8.37881 8.20476 8.37903 8.20474 8.37911C8.20469 8.37933 8.20463 8.37955 8.68994 8.49987ZM10.6872 5.49991L11.0407 5.85347C11.8393 5.0549 12.6382 4.4957 13.2361 4.13699C13.5347 3.95785 13.782 3.82936 13.9525 3.74654C14.0377 3.70515 14.1036 3.67523 14.147 3.65614C14.1687 3.64659 14.1847 3.63976 14.1947 3.63557C14.1997 3.63347 14.2032 3.63203 14.2052 3.63124C14.2061 3.63085 14.2067 3.63062 14.2069 3.63055C14.207 3.63051 14.207 3.63052 14.2068 3.63056C14.2068 3.63058 14.2067 3.63062 14.2066 3.63066C14.2065 3.63068 14.2064 3.63072 14.2064 3.63073C14.2063 3.63077 14.2062 3.63082 14.0205 3.16658C13.8348 2.70234 13.8347 2.70239 13.8346 2.70244C13.8345 2.70246 13.8344 2.70252 13.8343 2.70256C13.8341 2.70264 13.8338 2.70274 13.8336 2.70284C13.8331 2.70305 13.8324 2.7033 13.8317 2.70359C13.8303 2.70417 13.8284 2.70492 13.8262 2.70584C13.8217 2.70767 13.8156 2.71018 13.808 2.71338C13.7928 2.71976 13.7714 2.72888 13.7443 2.74082C13.69 2.7647 13.6127 2.79988 13.5156 2.84703C13.3215 2.9413 13.048 3.08364 12.7216 3.2795C12.0694 3.67079 11.2017 4.27825 10.3336 5.14636L10.6872 5.49991ZM14.1868 7.49986L14.6868 7.49987L14.6869 2.99964L14.1869 2.99963L13.6869 2.99963L13.6868 7.49986L14.1868 7.49986ZM14.1869 2.99963V2.49963H9.68677V2.99963V3.49963H14.1869V2.99963Z" fill="#0078E5"/>
<path d="M8.1875 3C8.1875 2.72386 7.96364 2.5 7.6875 2.5H5.1875C3.80679 2.5 2.6875 3.61929 2.6875 5V12.0005C2.6875 13.3812 3.80679 14.5005 5.1875 14.5005H12.1902C13.5709 14.5005 14.6902 13.3812 14.6902 12.0005V9.5C14.6902 9.22386 14.4663 9 14.1902 9C13.914 9 13.6902 9.22386 13.6902 9.5V12.0005C13.6902 12.8289 13.0186 13.5005 12.1902 13.5005H5.1875C4.35907 13.5005 3.6875 12.8289 3.6875 12.0005V5C3.6875 4.17157 4.35907 3.5 5.1875 3.5H7.6875C7.96364 3.5 8.1875 3.27614 8.1875 3Z" fill="#1A1A1A"/>
</svg>