<svg width="25" height="25" viewBox="0 0 25 25" fill="none" xmlns="http://www.w3.org/2000/svg">
<path d="M11.5469 4.27612C12.1729 3.26926 13.6386 3.26935 14.2646 4.27612L16.3213 7.58374C16.3901 7.69438 16.4995 7.77413 16.626 7.80542L20.4072 8.73901C21.5583 9.02327 22.0112 10.4174 21.2471 11.324L18.7373 14.3025C18.6534 14.4021 18.6118 14.5301 18.6211 14.6599L18.9014 18.5457C18.9864 19.728 17.8003 20.5889 16.7021 20.1423L13.0947 18.6755C12.974 18.6264 12.8385 18.6264 12.7178 18.6755L9.10938 20.1423C8.01118 20.5889 6.82606 19.728 6.91113 18.5457L7.19141 14.6599C7.20068 14.5302 7.15892 14.402 7.0752 14.3025L4.56445 11.324C3.80029 10.4174 4.25322 9.02327 5.4043 8.73901L9.18555 7.80542C9.31211 7.77417 9.4214 7.69445 9.49023 7.58374L11.5469 4.27612Z" fill="#0078E5"/>
<path d="M11.5469 4.27612L12.1838 4.67215L12.1838 4.67213L11.5469 4.27612ZM14.2646 4.27612L14.9016 3.8801L14.9015 3.88006L14.2646 4.27612ZM16.3213 7.58374L16.9582 7.18773L16.9582 7.18771L16.3213 7.58374ZM16.626 7.80542L16.4458 8.53346L16.4462 8.53355L16.626 7.80542ZM20.4072 8.73901L20.587 8.01089L20.587 8.01088L20.4072 8.73901ZM21.2471 11.324L20.6736 10.8406L20.6735 10.8407L21.2471 11.324ZM18.7373 14.3025L18.1638 13.8192L18.1637 13.8193L18.7373 14.3025ZM18.6211 14.6599L17.873 14.7134L17.873 14.7139L18.6211 14.6599ZM18.9014 18.5457L19.6494 18.4918L19.6494 18.4917L18.9014 18.5457ZM16.7021 20.1423L16.9847 19.4476L16.9846 19.4476L16.7021 20.1423ZM13.0947 18.6755L12.8122 19.3703L12.8122 19.3703L13.0947 18.6755ZM12.7178 18.6755L13.0002 19.3703L13.0003 19.3703L12.7178 18.6755ZM9.10938 20.1423L8.82695 19.4475L8.82687 19.4476L9.10938 20.1423ZM6.91113 18.5457L6.16308 18.4917L6.16307 18.4918L6.91113 18.5457ZM7.19141 14.6599L7.93946 14.7139L7.9395 14.7134L7.19141 14.6599ZM7.0752 14.3025L7.64913 13.8197L7.64864 13.8191L7.0752 14.3025ZM4.56445 11.324L3.991 11.8074L3.99101 11.8074L4.56445 11.324ZM5.4043 8.73901L5.22452 8.01088L5.22449 8.01089L5.4043 8.73901ZM9.18555 7.80542L9.36532 8.53355L9.36535 8.53355L9.18555 7.80542ZM9.49023 7.58374L8.85332 7.18771L8.85331 7.18773L9.49023 7.58374ZM11.5469 4.27612L12.1838 4.67213C12.5163 4.13734 13.2951 4.13725 13.6278 4.67219L14.2646 4.27612L14.9015 3.88006C13.982 2.40145 11.8295 2.40119 10.9099 3.88011L11.5469 4.27612ZM14.2646 4.27612L13.6277 4.67215L15.6844 7.97977L16.3213 7.58374L16.9582 7.18771L14.9016 3.8801L14.2646 4.27612ZM16.3213 7.58374L15.6844 7.97975C15.856 8.25577 16.129 8.45507 16.4458 8.53346L16.626 7.80542L16.8061 7.07738C16.87 7.09319 16.9242 7.133 16.9582 7.18773L16.3213 7.58374ZM16.626 7.80542L16.4462 8.53355L20.2274 9.46715L20.4072 8.73901L20.587 8.01088L16.8058 7.07729L16.626 7.80542ZM20.4072 8.73901L20.2274 9.46714C20.8389 9.61814 21.0796 10.3589 20.6736 10.8406L21.2471 11.324L21.8205 11.8074C22.9429 10.4759 22.2777 8.4284 20.587 8.01089L20.4072 8.73901ZM21.2471 11.324L20.6735 10.8407L18.1638 13.8192L18.7373 14.3025L19.3108 14.7858L21.8206 11.8073L21.2471 11.324ZM18.7373 14.3025L18.1637 13.8193C17.9541 14.0682 17.8498 14.3887 17.873 14.7134L18.6211 14.6599L19.3692 14.6064C19.3738 14.6714 19.3528 14.7359 19.311 14.7856L18.7373 14.3025ZM18.6211 14.6599L17.873 14.7139L18.1533 18.5996L18.9014 18.5457L19.6494 18.4917L19.3692 14.606L18.6211 14.6599ZM18.9014 18.5457L18.1533 18.5995C18.1984 19.2271 17.5685 19.685 16.9847 19.4476L16.7021 20.1423L16.4196 20.8371C18.0321 21.4928 19.7744 20.229 19.6494 18.4918L18.9014 18.5457ZM16.7021 20.1423L16.9846 19.4476L13.3772 17.9808L13.0947 18.6755L12.8122 19.3703L16.4197 20.8371L16.7021 20.1423ZM13.0947 18.6755L13.3772 17.9808C13.0753 17.858 12.7371 17.858 12.4353 17.9808L12.7178 18.6755L13.0003 19.3703C12.9399 19.3948 12.8726 19.3949 12.8122 19.3703L13.0947 18.6755ZM12.7178 18.6755L12.4353 17.9807L8.82695 19.4475L9.10938 20.1423L9.3918 20.8371L13.0002 19.3703L12.7178 18.6755ZM9.10938 20.1423L8.82687 19.4476C8.24342 19.6848 7.61401 19.2276 7.6592 18.5995L6.91113 18.5457L6.16307 18.4918C6.03811 20.2285 7.77893 21.493 9.39188 20.8371L9.10938 20.1423ZM6.91113 18.5457L7.65919 18.5996L7.93946 14.7139L7.19141 14.6599L6.44335 14.606L6.16308 18.4917L6.91113 18.5457ZM7.19141 14.6599L7.9395 14.7134C7.96272 14.3885 7.8581 14.0681 7.64913 13.8197L7.0752 14.3025L6.50126 14.7853C6.45975 14.7359 6.43864 14.6719 6.44331 14.6064L7.19141 14.6599ZM7.0752 14.3025L7.64864 13.8191L5.1379 10.8406L4.56445 11.324L3.99101 11.8074L6.50175 14.7859L7.0752 14.3025ZM4.56445 11.324L5.1379 10.8406C4.73191 10.3589 4.97264 9.61814 5.5841 9.46714L5.4043 8.73901L5.22449 8.01089C3.53379 8.4284 2.86867 10.4759 3.991 11.8074L4.56445 11.324ZM5.4043 8.73901L5.58407 9.46715L9.36532 8.53355L9.18555 7.80542L9.00577 7.07729L5.22452 8.01088L5.4043 8.73901ZM9.18555 7.80542L9.36535 8.53355C9.68279 8.45516 9.95564 8.25562 10.1272 7.97975L9.49023 7.58374L8.85331 7.18773C8.88716 7.13328 8.94143 7.09317 9.00574 7.07729L9.18555 7.80542ZM9.49023 7.58374L10.1272 7.97977L12.1838 4.67215L11.5469 4.27612L10.91 3.8801L8.85332 7.18771L9.49023 7.58374Z" fill="#0078E5"/>
</svg>