<svg width="25" height="24" viewBox="0 0 25 24" fill="none" xmlns="http://www.w3.org/2000/svg">
<path d="M15.6477 6L14.265 3.77622C13.639 2.76932 12.1735 2.76932 11.5475 3.77622L9.49081 7.08407C9.42198 7.19478 9.31263 7.27422 9.18607 7.30548L5.40457 8.2393C4.25349 8.52355 3.80064 9.91729 4.5648 10.8238L7.07521 13.802C7.15923 13.9017 7.201 14.0303 7.19161 14.1603L6.91118 18.0453C6.82582 19.2278 8.01141 20.0892 9.10973 19.6426L12.7179 18.1754C12.8387 18.1263 12.9738 18.1263 13.0946 18.1754L16.7028 19.6426C17.8011 20.0892 18.9867 19.2278 18.9013 18.0453L18.7303 15.6755M17.9062 7.62152L20.4079 8.2393C21.559 8.52355 22.0119 9.91729 21.2477 10.8238L19.2358 13.2107" stroke="#1A1A1A" stroke-width="1.5" stroke-linecap="round" stroke-linejoin="round"/>
<path d="M17.9062 7.62158L20.4079 8.23936C21.559 8.52361 22.0119 9.91735 21.2477 10.8239L19.2358 13.2107" stroke="#0078E5" stroke-width="1.5" stroke-linecap="round" stroke-linejoin="round"/>
</svg>
