<svg width="25" height="24" viewBox="0 0 25 24" fill="none" xmlns="http://www.w3.org/2000/svg">
<path fill-rule="evenodd" clip-rule="evenodd" d="M12.5 2C6.97715 2 2.5 6.47715 2.5 12C2.5 17.5228 6.97715 22 12.5 22C18.0228 22 22.5 17.5228 22.5 12C22.5 6.47715 18.0228 2 12.5 2ZM12.4978 6.41864C10.2808 6.41864 8.42373 8.01059 8.00208 10.1329C8.14875 10.0485 8.31885 10.0002 8.50023 10.0002C9.05251 10.0002 9.50023 10.4479 9.50023 11.0002V14.0002C9.50023 14.5525 9.05251 15.0002 8.50023 15.0002C8.28402 15.0002 8.08383 14.9316 7.92026 14.8149C8.00917 15.8082 8.83556 16.5776 9.83009 16.5776H13.3871C13.8013 16.5776 14.1371 16.9134 14.1371 17.3276C14.1371 17.7418 13.8013 18.0776 13.3871 18.0776H9.83009C7.93652 18.0776 6.41234 16.5312 6.41234 14.6371V11.0497C6.41234 7.66963 9.13091 4.91864 12.4978 4.91864C15.8648 4.91864 18.5833 7.66963 18.5833 11.0497V14.6371C18.5833 15.0513 18.2475 15.3871 17.8333 15.3871C17.475 15.3871 17.1753 15.1357 17.101 14.7997C16.9337 14.9256 16.7257 15.0002 16.5002 15.0002C15.9479 15.0002 15.5002 14.5525 15.5002 14.0002V11.0002C15.5002 10.4479 15.9479 10.0002 16.5002 10.0002C16.6794 10.0002 16.8475 10.0473 16.993 10.1298C16.5701 8.00905 14.7138 6.41864 12.4978 6.41864Z" fill="#0078E5"/>
</svg>