<svg width="24" height="24" viewBox="0 0 24 24" fill="none" xmlns="http://www.w3.org/2000/svg">
<path d="M9 2.75C11.2058 2.75 13 4.54421 13 6.75C12.9901 8.91794 11.2979 10.6645 9.14355 10.7402H9.14258C9.0562 10.7316 8.97014 10.734 8.88965 10.7393C6.67629 10.655 5 8.90531 5 6.75C5 4.54421 6.79421 2.75 9 2.75Z" stroke="black" stroke-width="1.5"/>
<path d="M9.0127 13.505C10.7358 13.505 12.4177 13.9427 13.6641 14.7736C14.6992 15.4637 15.2155 16.3248 15.2822 17.1925L15.29 17.3663C15.2877 18.2927 14.7685 19.2202 13.6602 19.9679C12.409 20.8074 10.7237 21.2501 9 21.2501C7.27558 21.2501 5.58922 20.8071 4.33789 19.9669L4.33594 19.9659C3.22754 19.227 2.70996 18.2976 2.70996 17.38C2.70996 16.4623 3.22758 15.5237 4.34375 14.7755C5.60127 13.9431 7.28969 13.505 9.0127 13.505Z" stroke="black" stroke-width="1.5"/>
<path d="M14.4048 10.1246C15.0078 10.6376 15.8088 10.9166 16.6818 10.8716C16.7268 10.8536 16.7808 10.8536 16.8348 10.8536H16.8618C16.8708 10.8536 16.8708 10.8536 16.8798 10.8536C18.5988 10.6466 19.8408 9.11658 19.6968 7.37058C19.5438 5.58858 17.9688 4.27458 16.2048 4.42758C15.7998 4.46358 15.4038 4.57158 15.0618 4.74258" stroke="#0078E5" stroke-width="1.5" stroke-linecap="round"/>
<path d="M17.0881 19.1992C18.1006 19.2235 19.1212 19.0129 19.9312 18.5674C20.7736 18.1057 21.2758 17.4253 21.3406 16.6396C21.4135 15.862 21.0328 15.1087 20.2876 14.5093C19.0355 13.4988 17.0752 13.1172 15.3879 13.4361" stroke="#0078E5" stroke-width="1.5" stroke-linecap="round"/>
</svg>
