<svg width="17" height="17" viewBox="0 0 17 17" fill="none" xmlns="http://www.w3.org/2000/svg">
<path d="M13.7582 9.65962L14.14 8.5853C14.2928 8.17074 14.2491 7.77642 14.0091 7.46297C13.7691 7.13941 13.3436 6.95741 12.8527 6.95741H10.0625C9.89886 6.95741 9.73521 6.89675 9.63703 6.77541C9.52793 6.65408 9.48429 6.50241 9.50611 6.33051L10.0708 4.44984C10.2017 3.89372 9.79804 3.25671 9.19801 3.0646C8.63072 2.87249 8.23321 2.96338 7.70341 3.5095C7.17361 4.05562 4.0625 7.46297 4.0625 7.46297V12.0556C4.0625 12.0556 5.48272 13.4185 6.13033 13.7926C6.77793 14.1667 6.77793 14.1667 7.39583 14.1667C8.01374 14.1668 10.7581 14.1667 10.7581 14.1667C11.5872 14.1667 12.4163 13.5904 12.6127 12.8826L12.9945 11.8083" stroke="#1A1A1A" stroke-linecap="round"/>
<path d="M1.896 5.66671C1.896 5.48261 2.04523 5.33337 2.22933 5.33337H3.896C4.08009 5.33337 4.22933 5.48261 4.22933 5.66671V13.8334C4.22933 14.0175 4.08009 14.1667 3.896 14.1667H2.22933C2.04523 14.1667 1.896 14.0175 1.896 13.8334V11.1848V9.75004V8.31427V5.66671Z" fill="#0078E5" stroke="#0078E5" stroke-linejoin="round"/>
</svg>