<svg width="24" height="24" viewBox="0 0 24 24" fill="none" xmlns="http://www.w3.org/2000/svg">
<path opacity="0.4" d="M16.19 2H7.81C4.17 2 2 4.17 2 7.81V16.18C2 19.83 4.17 22 7.81 22H16.18C19.82 22 21.99 19.83 21.99 16.19V7.81C22 4.17 19.83 2 16.19 2Z" fill="#0078E5"/>
<path d="M16.8299 9.40998C16.7599 9.23998 16.6199 9.09998 16.4499 9.02998C16.3699 8.99998 16.2799 8.97998 16.1899 8.97998H14.3299C13.9399 8.97998 13.6299 9.28998 13.6299 9.67998C13.6299 10.07 13.9399 10.38 14.3299 10.38H14.5099L12.3999 12.49L11.3799 10.97C11.2599 10.8 11.0799 10.68 10.8699 10.66C10.6499 10.64 10.4599 10.71 10.3099 10.86L7.32994 13.84C7.05994 14.11 7.05994 14.55 7.32994 14.83C7.46994 14.97 7.63994 15.03 7.81994 15.03C7.99994 15.03 8.17994 14.96 8.30994 14.83L10.6899 12.45L11.7099 13.97C11.8299 14.14 12.0099 14.26 12.2199 14.28C12.4399 14.3 12.6299 14.23 12.7799 14.08L15.4999 11.36V11.54C15.4999 11.93 15.8099 12.24 16.1999 12.24C16.5899 12.24 16.8999 11.93 16.8999 11.54V9.66998C16.8799 9.57998 16.8699 9.48998 16.8299 9.40998Z" fill="#0078E5"/>
</svg>
