<svg width="36" height="36" viewBox="0 0 36 36" fill="none" xmlns="http://www.w3.org/2000/svg">
<g clip-path="url(#clip0_12426_74844)">
<path d="M11.4248 0.75H23.9893L34.3496 11.1104V31.3135C34.3495 33.444 32.4905 35.25 30.0957 35.25H11.3135C8.90809 35.25 7.04989 33.4431 7.0498 31.3135V4.68652C7.0498 2.57744 8.99713 0.750079 11.4248 0.75Z" fill="white" stroke="#DBDBDB" stroke-width="1.5"/>
<path d="M24.3229 7.344V0L35.0998 10.8H27.9152C24.6821 10.8 24.1732 8.496 24.3229 7.344Z" fill="#D4D4D8"/>
<rect x="0.899902" y="17.1016" width="23.5" height="13.5" rx="2.7" fill="#079455"/>
<path d="M8.51986 23.8591L10.5674 26.9491H9.17986L7.84486 24.7891L6.56986 26.9491H5.17486L7.20736 23.8141L5.29486 21.0091H6.66736L7.89736 22.9066L9.07486 21.0091H10.4474L8.51986 23.8591ZM12.3443 21.0091V25.9141H15.1043V26.9491H11.2118V21.0091H12.3443ZM17.7388 27.0541C17.2188 27.0541 16.7613 26.9291 16.3663 26.6791C15.9713 26.4291 15.6713 26.0891 15.4663 25.6591L16.4413 25.1791C16.5613 25.4541 16.7338 25.6641 16.9588 25.8091C17.1888 25.9491 17.4513 26.0191 17.7463 26.0191C18.0613 26.0191 18.3163 25.9541 18.5113 25.8241C18.7063 25.6941 18.8038 25.5266 18.8038 25.3216C18.8038 25.1816 18.7663 25.0641 18.6913 24.9691C18.6163 24.8741 18.4913 24.7866 18.3163 24.7066C18.1463 24.6266 17.9038 24.5441 17.5888 24.4591C17.1938 24.3441 16.8663 24.2316 16.6063 24.1216C16.3513 24.0066 16.1263 23.8316 15.9313 23.5966C15.7413 23.3616 15.6463 23.0541 15.6463 22.6741C15.6463 22.3341 15.7388 22.0316 15.9238 21.7666C16.1138 21.4966 16.3738 21.2866 16.7038 21.1366C17.0338 20.9816 17.4013 20.9041 17.8063 20.9041C18.7963 20.9041 19.5138 21.3391 19.9588 22.2091L18.9988 22.7041C18.7188 22.1941 18.3163 21.9391 17.7913 21.9391C17.5113 21.9391 17.2763 22.0041 17.0863 22.1341C16.9013 22.2641 16.8088 22.4216 16.8088 22.6066C16.8088 22.7666 16.8488 22.8966 16.9288 22.9966C17.0138 23.0966 17.1388 23.1816 17.3038 23.2516C17.4738 23.3216 17.7138 23.3991 18.0238 23.4841C18.4038 23.5841 18.7263 23.6941 18.9913 23.8141C19.2563 23.9291 19.4838 24.1041 19.6738 24.3391C19.8638 24.5741 19.9588 24.8816 19.9588 25.2616C19.9588 25.6216 19.8638 25.9366 19.6738 26.2066C19.4888 26.4766 19.2288 26.6866 18.8938 26.8366C18.5588 26.9816 18.1738 27.0541 17.7388 27.0541Z" fill="white"/>
</g>
<defs>
<clipPath id="clip0_12426_74844">
<rect width="36" height="36" fill="white"/>
</clipPath>
</defs>
</svg>
