<svg width="24" height="24" viewBox="0 0 24 24" fill="none" xmlns="http://www.w3.org/2000/svg">
<g clip-path="url(#clip0_12420_72581)">
<path d="M7.61719 0.5H15.9932L22.9004 7.40723V20.876C22.9001 22.2962 21.6609 23.5 20.0645 23.5H7.54199C5.93872 23.4998 4.70045 22.2955 4.7002 20.876V3.12402C4.70039 1.71807 5.99881 0.5 7.61719 0.5Z" fill="white" stroke="#DBDBDB"/>
<path d="M16.2156 4.896V0L23.4002 7.2H18.6104C16.4551 7.2 16.1158 5.664 16.2156 4.896Z" fill="#D4D4D8"/>
<rect x="0.600098" y="11.3984" width="16" height="9" rx="1.8" fill="#079455"/>
<path d="M5.84674 15.9034L7.21174 17.9634H6.28674L5.39674 16.5234L4.54674 17.9634H3.61674L4.97174 15.8734L3.69674 14.0034H4.61174L5.43174 15.2684L6.21674 14.0034H7.13174L5.84674 15.9034ZM8.39639 14.0034V17.2734H10.2364V17.9634H7.64139V14.0034H8.39639ZM11.9927 18.0334C11.646 18.0334 11.341 17.9501 11.0777 17.7834C10.8143 17.6168 10.6143 17.3901 10.4777 17.1034L11.1277 16.7834C11.2077 16.9668 11.3227 17.1068 11.4727 17.2034C11.626 17.2968 11.801 17.3434 11.9977 17.3434C12.2077 17.3434 12.3777 17.3001 12.5077 17.2134C12.6377 17.1268 12.7027 17.0151 12.7027 16.8784C12.7027 16.7851 12.6777 16.7068 12.6277 16.6434C12.5777 16.5801 12.4943 16.5218 12.3777 16.4684C12.2643 16.4151 12.1027 16.3601 11.8927 16.3034C11.6293 16.2268 11.411 16.1518 11.2377 16.0784C11.0677 16.0018 10.9177 15.8851 10.7877 15.7284C10.661 15.5718 10.5977 15.3668 10.5977 15.1134C10.5977 14.8868 10.6593 14.6851 10.7827 14.5084C10.9093 14.3284 11.0827 14.1884 11.3027 14.0884C11.5227 13.9851 11.7677 13.9334 12.0377 13.9334C12.6977 13.9334 13.176 14.2234 13.4727 14.8034L12.8327 15.1334C12.646 14.7934 12.3777 14.6234 12.0277 14.6234C11.841 14.6234 11.6843 14.6668 11.5577 14.7534C11.4343 14.8401 11.3727 14.9451 11.3727 15.0684C11.3727 15.1751 11.3993 15.2618 11.4527 15.3284C11.5093 15.3951 11.5927 15.4518 11.7027 15.4984C11.816 15.5451 11.976 15.5968 12.1827 15.6534C12.436 15.7201 12.651 15.7934 12.8277 15.8734C13.0043 15.9501 13.156 16.0668 13.2827 16.2234C13.4093 16.3801 13.4727 16.5851 13.4727 16.8384C13.4727 17.0784 13.4093 17.2884 13.2827 17.4684C13.1593 17.6484 12.986 17.7884 12.7627 17.8884C12.5393 17.9851 12.2827 18.0334 11.9927 18.0334Z" fill="white"/>
</g>
<defs>
<clipPath id="clip0_12420_72581">
<rect width="24" height="24" fill="white"/>
</clipPath>
</defs>
</svg>
