<svg width="25" height="24" viewBox="0 0 25 24" fill="none" xmlns="http://www.w3.org/2000/svg">
<path opacity="0.4" d="M20.7188 7V15H6.56875C4.99875 15 3.71875 16.28 3.71875 17.85V7C3.71875 3 4.71875 2 8.71875 2H15.7188C19.7188 2 20.7188 3 20.7188 7Z" fill="#0078E5"/>
<path d="M20.7188 15V18.5C20.7188 20.43 19.1488 22 17.2188 22H7.21875C5.28875 22 3.71875 20.43 3.71875 18.5V17.85C3.71875 16.28 4.99875 15 6.56875 15H20.7188Z" fill="#0078E5"/>
<path d="M16.2188 7.75H8.21875C7.80875 7.75 7.46875 7.41 7.46875 7C7.46875 6.59 7.80875 6.25 8.21875 6.25H16.2188C16.6287 6.25 16.9688 6.59 16.9688 7C16.9688 7.41 16.6287 7.75 16.2188 7.75Z" fill="#0078E5"/>
<path d="M13.2188 11.75H8.21875C7.80875 11.75 7.46875 11.41 7.46875 11C7.46875 10.59 7.80875 10.25 8.21875 10.25H13.2188C13.6287 10.25 13.9688 10.59 13.9688 11C13.9688 11.41 13.6287 11.75 13.2188 11.75Z" fill="#0078E5"/>
</svg>