<svg width="17" height="17" viewBox="0 0 17 17" fill="none" xmlns="http://www.w3.org/2000/svg">
<path d="M11.3404 1.84619C11.9067 1.84619 12.3616 1.84629 12.7281 1.87549C13.0998 1.90515 13.4248 1.96749 13.7251 2.1167C14.204 2.35467 14.596 2.73528 14.8423 3.20654C14.9976 3.50377 15.0627 3.82551 15.0933 4.19092C15.1234 4.55014 15.1226 4.9948 15.1226 5.54639V9.14697C15.1226 9.69857 15.1234 10.1432 15.0933 10.5024C15.0627 10.8679 14.9976 11.1896 14.8423 11.4868C14.596 11.9581 14.204 12.3387 13.7251 12.5767C13.4248 12.7259 13.0998 12.7892 12.7281 12.8188C12.3616 12.848 11.9067 12.8472 11.3404 12.8472H9.61966C9.17433 12.8472 9.0186 12.8497 8.87454 12.8784C8.73668 12.906 8.60291 12.952 8.47806 13.0142C8.34795 13.079 8.22593 13.1711 7.87747 13.4429L6.24661 14.7153C6.11218 14.8202 5.98408 14.9201 5.87454 14.9907C5.77206 15.0568 5.60375 15.1534 5.3931 15.1538C5.1416 15.1541 4.89954 15.0427 4.73783 14.8452C4.60109 14.6782 4.57228 14.4822 4.56107 14.3618C4.54907 14.233 4.55032 14.072 4.55033 13.9048V12.8442C4.20839 12.8397 3.94386 12.8246 3.70853 12.7632C2.83285 12.5343 2.14123 11.8644 1.90286 10.9976C1.8106 10.6618 1.81497 10.2673 1.81497 9.68018V8.50049C1.81497 8.22435 2.03883 8.00049 2.31497 8.00049C2.59104 8.00058 2.81497 8.2244 2.81497 8.50049V9.68018C2.81497 10.3328 2.81929 10.559 2.86673 10.7319C3.00779 11.2452 3.42179 11.6543 3.96146 11.7954C4.14446 11.8432 4.38318 11.8472 5.05033 11.8472C5.32624 11.8474 5.55031 12.0712 5.55033 12.3472V13.9048C5.55033 13.9333 5.55126 13.96 5.5513 13.9849C5.57519 13.9663 5.60325 13.9482 5.63138 13.9263L7.26224 12.6538C7.57963 12.4062 7.79114 12.2386 8.03177 12.1187C8.23603 12.0169 8.45412 11.9428 8.67826 11.8979C8.94188 11.8453 9.21302 11.8472 9.61966 11.8472H11.3404C11.9226 11.8472 12.3305 11.8471 12.648 11.8218C12.9599 11.7969 13.1416 11.7498 13.2798 11.6812C13.5725 11.5357 13.8086 11.305 13.9556 11.0239C14.0238 10.8933 14.071 10.72 14.0962 10.4185C14.122 10.1107 14.1226 9.71525 14.1226 9.14697V5.54639C14.1226 4.97811 14.122 4.58265 14.0962 4.2749C14.071 3.97335 14.0238 3.80003 13.9556 3.66943C13.8086 3.38838 13.5725 3.15768 13.2798 3.01221C13.1416 2.94356 12.9599 2.89644 12.648 2.87158C12.3305 2.8463 11.9226 2.84619 11.3404 2.84619H5.5972C5.01494 2.84619 4.60713 2.84631 4.28958 2.87158C3.97767 2.89643 3.796 2.94357 3.65775 3.01221C3.36498 3.15766 3.12898 3.38836 2.98197 3.66943C2.91372 3.80003 2.86661 3.97331 2.84134 4.2749C2.81558 4.58265 2.81497 4.9781 2.81497 5.54639V6.50049C2.81473 6.77637 2.59089 7.0004 2.31497 7.00049C2.03898 7.00049 1.81522 6.77642 1.81497 6.50049V5.54639C1.81497 4.99479 1.81417 4.55015 1.84427 4.19092C1.8749 3.82549 1.93993 3.50378 2.09525 3.20654C2.34155 2.73527 2.73358 2.35466 3.21244 2.1167C3.5129 1.96744 3.83854 1.90512 4.21048 1.87549C4.5769 1.84633 5.03113 1.84619 5.5972 1.84619H11.3404Z" fill="#1A1A1A"/>
<circle cx="8.46891" cy="7.50004" r="0.666667" fill="#0078E5"/>
<circle cx="5.80192" cy="7.50004" r="0.666667" fill="#0078E5"/>
<circle cx="11.1354" cy="7.50004" r="0.666667" fill="#0078E5"/>
</svg>