<svg width="25" height="24" viewBox="0 0 25 24" fill="none" xmlns="http://www.w3.org/2000/svg">
<path fill-rule="evenodd" clip-rule="evenodd" d="M8.37943 2.01929L8.41091 2.01929H17.0263L17.0578 2.01929C17.8927 2.01928 18.5638 2.01928 19.1067 2.06253C19.6647 2.10699 20.1523 2.20068 20.603 2.42463C21.3215 2.78161 21.9092 3.35302 22.2787 4.06014C22.5117 4.50604 22.6089 4.98834 22.6548 5.53655C22.6993 6.0683 22.6993 6.72466 22.6993 7.537V7.56977V12.9703V13.0031C22.6993 13.8154 22.6993 14.4718 22.6548 15.0035C22.6089 15.5517 22.5117 16.034 22.2787 16.4799C21.9092 17.1871 21.3215 17.7585 20.603 18.1154C20.1523 18.3394 19.6647 18.4331 19.1067 18.4775C18.5638 18.5208 17.8927 18.5208 17.0578 18.5208H17.0263H14.4455C13.7761 18.5208 13.5429 18.5242 13.3265 18.5675C13.1196 18.6089 12.9198 18.6773 12.7325 18.7706C12.5372 18.8679 12.3544 19.0061 11.8314 19.4141L9.38478 21.3226L9.36148 21.3408C9.16833 21.4915 8.9853 21.6343 8.82731 21.7362C8.67346 21.8354 8.42089 21.9805 8.10456 21.9808C7.72725 21.9812 7.36466 21.8141 7.12208 21.5178C6.91697 21.2672 6.87446 20.9733 6.85764 20.7927C6.84034 20.607 6.84037 20.3769 6.8404 20.1367L6.8404 20.1065V18.5184C6.3276 18.5116 5.93175 18.4864 5.5788 18.3942C4.26485 18.0509 3.22692 17.0464 2.8695 15.7458C2.73734 15.2648 2.73753 14.7042 2.73782 13.8878C2.73783 13.8492 2.73785 13.8101 2.73785 13.7704V12.0001C2.73785 11.5858 3.07363 11.2501 3.48785 11.2501C3.90206 11.2501 4.23785 11.5858 4.23785 12.0001V13.7704C4.23785 14.7499 4.2446 15.0889 4.31588 15.3483C4.52749 16.1184 5.1483 16.7314 5.95799 16.9429C6.23252 17.0146 6.5894 17.0208 7.5904 17.0208C8.00461 17.0208 8.3404 17.3566 8.3404 17.7708V20.1065C8.3404 20.1524 8.34042 20.195 8.3405 20.2347C8.37766 20.2058 8.41807 20.1743 8.46218 20.1399L10.9088 18.2314C10.9279 18.2165 10.9468 18.2017 10.9654 18.1872C11.4108 17.8396 11.7169 17.6007 12.0636 17.428C12.3701 17.2753 12.6959 17.1639 13.0321 17.0966C13.4122 17.0206 13.8025 17.0207 14.3737 17.0208C14.3973 17.0208 14.4212 17.0208 14.4455 17.0208H17.0263C17.9 17.0208 18.5112 17.0202 18.9876 16.9823C19.4558 16.945 19.7282 16.8752 19.9356 16.7721C20.375 16.5538 20.7288 16.2072 20.9492 15.7853C21.0516 15.5894 21.1221 15.3307 21.16 14.8783C21.1987 14.4165 21.1993 13.8232 21.1993 12.9703V7.56977C21.1993 6.71692 21.1987 6.12353 21.16 5.6618C21.1221 5.2094 21.0516 4.95072 20.9492 4.75482C20.7288 4.33285 20.375 3.98629 19.9356 3.76797C19.7282 3.66491 19.4558 3.59509 18.9876 3.5578C18.5112 3.51984 17.9 3.51929 17.0263 3.51929H8.41091C7.53722 3.51929 6.92594 3.51984 6.44956 3.5578C5.98139 3.59509 5.70901 3.66491 5.50158 3.76797C5.06216 3.98629 4.70842 4.33285 4.48793 4.75482C4.38557 4.95072 4.31505 5.2094 4.27715 5.6618C4.23846 6.12353 4.23785 6.71692 4.23785 7.56977V9.00006C4.23785 9.41428 3.90206 9.75006 3.48785 9.75006C3.07363 9.75006 2.73785 9.41428 2.73785 9.00006V7.56977L2.73785 7.53695C2.73784 6.72464 2.73783 6.06829 2.78239 5.53655C2.82832 4.98834 2.92549 4.50604 3.15849 4.06014C3.52798 3.35302 4.11567 2.78161 4.83416 2.42463C5.28492 2.20068 5.77244 2.10699 6.33044 2.06253C6.87341 2.01928 7.54451 2.01928 8.37943 2.01929Z" fill="#1A1A1A"/>
<circle cx="12.7188" cy="10.5" r="1" fill="#0078E5"/>
<circle cx="8.71875" cy="10.5" r="1" fill="#0078E5"/>
<circle cx="16.7188" cy="10.5" r="1" fill="#0078E5"/>
</svg>