<svg width="25" height="25" viewBox="0 0 25 25" fill="none" xmlns="http://www.w3.org/2000/svg">
<path d="M16.5625 6.5L15.9969 4.66183C15.7387 3.82265 14.9634 3.25 14.0854 3.25H11.0396C10.1616 3.25 9.3863 3.82265 9.12809 4.66183L8.5625 6.5" stroke="#0078E5" stroke-width="1.5" stroke-linecap="round"/>
<path d="M6.5625 14.5V11.7817C6.5625 10.7902 6.22505 9.82819 5.60566 9.05394V9.05394C4.78225 8.02469 5.51505 6.5 6.83314 6.5H18.2919C19.6099 6.5 20.3428 8.02469 19.5193 9.05394V9.05394C18.8999 9.82819 18.5625 10.7902 18.5625 11.7817V17.75C18.5625 19.9591 16.7716 21.75 14.5625 21.75H10.5625C8.35336 21.75 6.5625 19.9591 6.5625 17.75V17" stroke="#1A1A1A" stroke-width="1.5" stroke-linecap="round"/>
<path d="M14.5625 17.5L14.5625 11.5" stroke="#0078E5" stroke-width="1.5" stroke-linecap="round" stroke-linejoin="round"/>
<path d="M10.5625 17.5L10.5625 11.5" stroke="#0078E5" stroke-width="1.5" stroke-linecap="round" stroke-linejoin="round"/>
</svg>