<svg width="17" height="17" viewBox="0 0 17 17" fill="none" xmlns="http://www.w3.org/2000/svg">
<path d="M11.6043 4.50004L11.2273 3.27459C11.0551 2.71514 10.5382 2.33337 9.9529 2.33337H7.92243C7.33709 2.33337 6.8202 2.71514 6.64806 3.27459L6.271 4.50004" stroke="#0078E5" stroke-linecap="round"/>
<path d="M4.9375 9.83333V8.02113C4.9375 7.36012 4.71253 6.71879 4.2996 6.20263V6.20263C3.75067 5.51646 4.2392 4.5 5.11793 4.5H12.7571C13.6358 4.5 14.1243 5.51646 13.5754 6.20263V6.20263C13.1625 6.71879 12.9375 7.36012 12.9375 8.02113V12C12.9375 13.4728 11.7436 14.6667 10.2708 14.6667H7.60417C6.13141 14.6667 4.9375 13.4728 4.9375 12V11.5" stroke="#1A1A1A" stroke-linecap="round"/>
<path d="M10.271 11.8334L10.271 7.83337" stroke="#0078E5" stroke-linecap="round" stroke-linejoin="round"/>
<path d="M7.604 11.8334L7.604 7.83337" stroke="#0078E5" stroke-linecap="round" stroke-linejoin="round"/>
</svg>