<svg width="24" height="24" viewBox="0 0 24 24" fill="none" xmlns="http://www.w3.org/2000/svg">
<g clip-path="url(#clip0_12420_72557)">
<path d="M7.61719 0.5H15.9932L22.9004 7.40723V20.876C22.9001 22.2962 21.6609 23.5 20.0645 23.5H7.54199C5.93872 23.4998 4.70045 22.2955 4.7002 20.876V3.12402C4.70039 1.71807 5.99881 0.5 7.61719 0.5Z" fill="white" stroke="#DBDBDB"/>
<path d="M16.2156 4.896V0L23.4002 7.2H18.6104C16.4551 7.2 16.1158 5.664 16.2156 4.896Z" fill="#D4D4D8"/>
<rect x="0.600098" y="11.3984" width="17" height="9" rx="1.8" fill="#155EEF"/>
<path d="M3.5784 17.9634V14.0034H4.9384C5.35507 14.0034 5.71173 14.0834 6.0084 14.2434C6.3084 14.4034 6.53673 14.6318 6.6934 14.9284C6.85007 15.2251 6.9284 15.5768 6.9284 15.9834C6.9284 16.3868 6.84673 16.7384 6.6834 17.0384C6.52007 17.3351 6.28173 17.5634 5.9684 17.7234C5.6584 17.8834 5.28673 17.9634 4.8534 17.9634H3.5784ZM4.8584 17.2534C5.27173 17.2534 5.59007 17.1418 5.8134 16.9184C6.04007 16.6951 6.1534 16.3834 6.1534 15.9834C6.1534 15.5801 6.04507 15.2668 5.8284 15.0434C5.61173 14.8201 5.30173 14.7084 4.8984 14.7084H4.3334V17.2534H4.8584ZM9.20895 18.0334C8.84228 18.0334 8.52228 17.9501 8.24895 17.7834C7.97895 17.6168 7.77061 17.3801 7.62395 17.0734C7.47728 16.7634 7.40395 16.4001 7.40395 15.9834C7.40395 15.5668 7.47728 15.2051 7.62395 14.8984C7.77061 14.5884 7.97895 14.3501 8.24895 14.1834C8.52228 14.0168 8.84228 13.9334 9.20895 13.9334C9.57561 13.9334 9.89395 14.0168 10.1639 14.1834C10.4373 14.3501 10.6473 14.5884 10.7939 14.8984C10.9406 15.2051 11.0139 15.5668 11.0139 15.9834C11.0139 16.3968 10.9406 16.7584 10.7939 17.0684C10.6473 17.3784 10.4373 17.6168 10.1639 17.7834C9.89395 17.9501 9.57561 18.0334 9.20895 18.0334ZM9.20895 17.3234C9.41561 17.3234 9.59728 17.2684 9.75395 17.1584C9.91061 17.0484 10.0306 16.8934 10.1139 16.6934C10.1973 16.4901 10.2389 16.2534 10.2389 15.9834C10.2389 15.7101 10.1973 15.4734 10.1139 15.2734C10.0306 15.0701 9.91061 14.9134 9.75395 14.8034C9.60061 14.6934 9.41895 14.6384 9.20895 14.6384C8.99895 14.6384 8.81561 14.6934 8.65895 14.8034C8.50561 14.9134 8.38728 15.0701 8.30395 15.2734C8.22061 15.4734 8.17895 15.7101 8.17895 15.9834C8.17895 16.2534 8.22061 16.4901 8.30395 16.6934C8.38728 16.8934 8.50728 17.0484 8.66395 17.1584C8.82061 17.2684 9.00228 17.3234 9.20895 17.3234ZM14.776 17.1484C14.6326 17.4284 14.4343 17.6468 14.181 17.8034C13.9276 17.9568 13.6393 18.0334 13.316 18.0334C12.9593 18.0334 12.6426 17.9468 12.366 17.7734C12.0893 17.5968 11.8726 17.3518 11.716 17.0384C11.5626 16.7251 11.486 16.3668 11.486 15.9634C11.486 15.5668 11.5626 15.2151 11.716 14.9084C11.8726 14.6018 12.091 14.3634 12.371 14.1934C12.6543 14.0201 12.9793 13.9334 13.346 13.9334C13.676 13.9334 13.961 14.0118 14.201 14.1684C14.441 14.3251 14.631 14.5418 14.771 14.8184L14.116 15.1334C14.036 14.9768 13.9243 14.8551 13.781 14.7684C13.641 14.6818 13.4843 14.6384 13.311 14.6384C13.1076 14.6384 12.926 14.6951 12.766 14.8084C12.6093 14.9184 12.486 15.0751 12.396 15.2784C12.3093 15.4784 12.266 15.7068 12.266 15.9634C12.266 16.2268 12.3093 16.4618 12.396 16.6684C12.486 16.8751 12.6093 17.0368 12.766 17.1534C12.926 17.2668 13.1076 17.3234 13.311 17.3234C13.4776 17.3234 13.631 17.2801 13.771 17.1934C13.911 17.1068 14.0276 16.9851 14.121 16.8284L14.776 17.1484Z" fill="white"/>
</g>
<defs>
<clipPath id="clip0_12420_72557">
<rect width="24" height="24" fill="white"/>
</clipPath>
</defs>
</svg>
