<svg width="25" height="24" viewBox="0 0 25 24" fill="none" xmlns="http://www.w3.org/2000/svg">
<path d="M6.4879 19C8.14204 20.5505 10.3664 21.5 12.8125 21.5C17.9211 21.5 22.0625 17.3586 22.0625 12.25C22.0625 7.14137 17.9211 3 12.8125 3C7.70387 3 3.5625 7.14137 3.5625 12.25C3.5625 13.7822 3.93505 15.2274 4.5945 16.5" stroke="#1A1A1A" stroke-width="1.5" stroke-linecap="round"/>
<path d="M8.8125 16L9.8125 15L11.3125 16L12.8125 15L14.3125 16L15.8125 15L16.8125 16" stroke="#0078E5" stroke-width="1.5" stroke-linecap="round" stroke-linejoin="round"/>
<path d="M9.3125 11.5L10.8125 10L9.3125 8.5" stroke="#0078E5" stroke-width="1.5" stroke-linecap="round" stroke-linejoin="round"/>
<path d="M16.3125 11.5L14.8125 10L16.3125 8.5" stroke="#0078E5" stroke-width="1.5" stroke-linecap="round" stroke-linejoin="round"/>
</svg>