<svg width="25" height="24" viewBox="0 0 25 24" fill="none" xmlns="http://www.w3.org/2000/svg">
<path d="M6.26915 19C7.92329 20.5505 10.1476 21.5 12.5938 21.5C17.7024 21.5 21.8438 17.3586 21.8438 12.25C21.8438 7.14137 17.7024 3 12.5938 3C7.48512 3 3.34375 7.14137 3.34375 12.25C3.34375 13.7822 3.7163 15.2274 4.37575 16.5" stroke="#1A1A1A" stroke-width="1.5" stroke-linecap="round"/>
<circle cx="9.09375" cy="9.5" r="1.25" stroke="#0078E5" stroke-width="1.5"/>
<path d="M12.5938 13C9.5938 13 8.02174 15.4252 8.0938 17C8.0938 17 10.0938 16.5 12.5938 16.5C15.0938 16.5 17.0938 17 17.0938 17C17.1661 15.4252 15.5938 13 12.5938 13Z" stroke="#0078E5" stroke-width="1.5" stroke-linecap="round" stroke-linejoin="round"/>
<circle cx="16.0938" cy="9.5" r="1.25" stroke="#0078E5" stroke-width="1.5"/>
</svg>