<svg width="25" height="24" viewBox="0 0 25 24" fill="none" xmlns="http://www.w3.org/2000/svg">
<path d="M11.43 2.09998L6.5 9.99998" stroke="#0078E5" stroke-width="1.5" stroke-miterlimit="10" stroke-linecap="round" stroke-linejoin="round"/>
<path d="M19.0999 2.09998C20.1999 2.09998 21.0999 2.99998 21.0999 4.09998V6.29998C21.0999 7.09998 20.5999 8.09998 20.0999 8.59998L15.7999 12.4C15.1999 12.9 14.7999 13.9 14.7999 14.7V19C14.7999 19.6 14.3999 20.4 13.8999 20.7L12.4999 21.6C11.1999 22.4 9.3999 21.5 9.3999 19.9V14.6C9.3999 13.9 8.9999 13 8.5999 12.5L4.7999 8.49998C4.2999 7.99998 3.8999 7.09998 3.8999 6.49998V4.19998C3.8999 2.99998 4.7999 2.09998 5.8999 2.09998H14.8999" stroke="#171717" stroke-width="1.5" stroke-miterlimit="10" stroke-linecap="round" stroke-linejoin="round"/>
</svg>
