<svg width="25" height="24" viewBox="0 0 25 24" fill="none" xmlns="http://www.w3.org/2000/svg">
<path d="M21.9124 3.3848C21.8431 3.26703 21.7472 3.16998 21.6335 3.1027C21.5199 3.03542 21.3922 3.00009 21.2624 3H2.80108C2.64885 2.99987 2.50001 3.0482 2.3734 3.13888C2.24679 3.22956 2.14811 3.3585 2.08984 3.50938C2.03157 3.66027 2.01633 3.82631 2.04606 3.98648C2.07579 4.14666 2.14915 4.29377 2.25685 4.4092L6.32892 8.77708L2.25685 13.145C2.14915 13.2604 2.07579 13.4075 2.04606 13.5677C2.01633 13.7279 2.03157 13.8939 2.08984 14.0448C2.14811 14.1957 2.24679 14.3246 2.3734 14.4153C2.50001 14.506 2.64885 14.5543 2.80108 14.5542H15.649L12.876 20.8017C12.8296 20.8999 12.802 21.007 12.7948 21.1168C12.7876 21.2266 12.8009 21.3368 12.834 21.441C12.8671 21.5452 12.9193 21.6412 12.9876 21.7234C13.0558 21.8057 13.1386 21.8724 13.2312 21.9198C13.3239 21.9671 13.4244 21.9941 13.5269 21.9991C13.6293 22.0042 13.7317 21.9872 13.828 21.9491C13.9243 21.9111 14.0125 21.8528 14.0874 21.7776C14.1624 21.7024 14.2225 21.6119 14.2644 21.5114L21.9566 4.18018C22.0124 4.05437 22.0376 3.91546 22.0299 3.77638C22.0222 3.6373 21.9817 3.50259 21.9124 3.3848ZM16.3807 12.9036H4.65778L7.96063 9.36098C8.03215 9.28433 8.08888 9.19331 8.12759 9.09312C8.16631 8.99293 8.18623 8.88554 8.18623 8.77708C8.18623 8.66863 8.16631 8.56123 8.12759 8.46104C8.08888 8.36085 8.03215 8.26983 7.96063 8.19319L4.65778 4.6506H20.0422L16.3807 12.9036Z" fill="black"/>
</svg>