<svg width="25" height="24" viewBox="0 0 25 24" fill="none" xmlns="http://www.w3.org/2000/svg">
<path d="M4.96875 22C4.55875 22 4.21875 21.66 4.21875 21.25V2.75C4.21875 2.34 4.55875 2 4.96875 2C5.37875 2 5.71875 2.34 5.71875 2.75V21.25C5.71875 21.66 5.37875 22 4.96875 22Z" fill="#0078E5"/>
<path opacity="0.4" d="M13.7188 4C13.9949 4 14.2188 4.22386 14.2188 4.5V6H19.7188C19.9949 6 20.2188 6.22386 20.2188 6.5V16.5C20.2188 16.7761 19.9949 17 19.7188 17H11.7188C11.4426 17 11.2188 16.7761 11.2188 16.5V15H5.21875V4H13.7188Z" fill="#0078E5"/>
</svg>