<svg width="25" height="25" viewBox="0 0 25 25" fill="none" xmlns="http://www.w3.org/2000/svg">
<path d="M21.9124 3.8848C21.8431 3.76703 21.7472 3.66998 21.6335 3.6027C21.5199 3.53542 21.3922 3.50009 21.2624 3.5H2.80108C2.64885 3.49987 2.50001 3.5482 2.3734 3.63888C2.24679 3.72956 2.14811 3.8585 2.08984 4.00938C2.03157 4.16027 2.01633 4.32631 2.04606 4.48648C2.07579 4.64666 2.14915 4.79377 2.25685 4.9092L6.32892 9.27708L2.25685 13.645C2.14915 13.7604 2.07579 13.9075 2.04606 14.0677C2.01633 14.2279 2.03157 14.3939 2.08984 14.5448C2.14811 14.6957 2.24679 14.8246 2.3734 14.9153C2.50001 15.006 2.64885 15.0543 2.80108 15.0542H15.649L12.876 21.3017C12.8296 21.3999 12.802 21.507 12.7948 21.6168C12.7876 21.7266 12.8009 21.8368 12.834 21.941C12.8671 22.0452 12.9193 22.1412 12.9876 22.2234C13.0558 22.3057 13.1386 22.3724 13.2312 22.4198C13.3239 22.4671 13.4244 22.4941 13.5269 22.4991C13.6293 22.5042 13.7317 22.4872 13.828 22.4491C13.9243 22.4111 14.0125 22.3528 14.0874 22.2776C14.1624 22.2024 14.2225 22.1119 14.2644 22.0114L21.9566 4.68018C22.0124 4.55437 22.0376 4.41546 22.0299 4.27638C22.0222 4.1373 21.9817 4.00259 21.9124 3.8848Z" fill="black"/>
</svg>