<svg width="24" height="24" viewBox="0 0 24 24" fill="none" xmlns="http://www.w3.org/2000/svg">
  <!-- 花瓣 -->
  <path d="M12 4C10.5 4 9.5 5.5 9.5 7C9.5 8.5 10.5 10 12 10C13.5 10 14.5 8.5 14.5 7C14.5 5.5 13.5 4 12 4Z" fill="#FF6B6B"/>
  <path d="M16 8C16 6.5 17.5 5.5 19 5.5C20.5 5.5 22 6.5 22 8C22 9.5 20.5 10.5 19 10.5C17.5 10.5 16 9.5 16 8Z" fill="#FF6B6B"/>
  <path d="M20 12C18.5 12 17.5 13.5 17.5 15C17.5 16.5 18.5 18 20 18C21.5 18 22.5 16.5 22.5 15C22.5 13.5 21.5 12 20 12Z" fill="#FF6B6B"/>
  <path d="M12 20C13.5 20 14.5 18.5 14.5 17C14.5 15.5 13.5 14 12 14C10.5 14 9.5 15.5 9.5 17C9.5 18.5 10.5 20 12 20Z" fill="#FF6B6B"/>
  <path d="M8 16C8 17.5 6.5 18.5 5 18.5C3.5 18.5 2 17.5 2 16C2 14.5 3.5 13.5 5 13.5C6.5 13.5 8 14.5 8 16Z" fill="#FF6B6B"/>
  <path d="M4 12C5.5 12 6.5 10.5 6.5 9C6.5 7.5 5.5 6 4 6C2.5 6 1.5 7.5 1.5 9C1.5 10.5 2.5 12 4 12Z" fill="#FF6B6B"/>
  <!-- 花心 -->
  <circle cx="12" cy="12" r="3" fill="#FFD700"/>
  <circle cx="12" cy="12" r="1.5" fill="#FFA500"/>
</svg>