<svg width="25" height="25" viewBox="0 0 25 25" fill="none" xmlns="http://www.w3.org/2000/svg">
<rect x="0.09375" y="0.5" width="24" height="24" rx="12" fill="#F2F2F2"/>
<path d="M7.26025 13V7.66671C7.26025 6.93033 7.85721 6.33337 8.59359 6.33337H15.5936C16.33 6.33337 16.9269 6.93033 16.9269 7.66671L16.9269 13M9.70601 8.91378H13.5748M9.70601 10.8396H12.0885" stroke="#0078E5" stroke-linecap="round"/>
<path d="M18.2606 17.3334V14C18.2606 13.6319 17.9621 13.3334 17.5939 13.3334H14.6293C14.2611 13.3334 13.9626 13.6319 13.9626 14V14.3334C13.9626 14.7016 13.6641 15 13.2959 15H10.8919C10.5237 15 10.2252 14.7016 10.2252 14.3334V14C10.2252 13.6319 9.92675 13.3334 9.55856 13.3334H6.59391C6.22572 13.3334 5.92725 13.6319 5.92725 14V17.3334C5.92725 18.0698 6.5242 18.6667 7.26058 18.6667H16.9272C17.6636 18.6667 18.2606 18.0698 18.2606 17.3334Z" fill="#0078E5" stroke="#0078E5"/>
</svg>