<svg width="25" height="25" viewBox="0 0 25 25" fill="none" xmlns="http://www.w3.org/2000/svg">
<rect x="0.875" y="0.5" width="24" height="24" rx="12" fill="#F2F2F2"/>
<path d="M6.72119 6.54688H19.0288C19.1066 6.54693 19.1839 6.56791 19.2524 6.6084C19.3211 6.64907 19.38 6.70835 19.4224 6.78027C19.4647 6.85222 19.4889 6.93513 19.4937 7.02051C19.4983 7.10568 19.4837 7.19076 19.4497 7.26758L14.3208 18.8223V18.8232C14.2952 18.8847 14.2579 18.9397 14.2124 18.9854C14.167 19.0308 14.1139 19.066 14.0562 19.0889C13.9981 19.1118 13.9361 19.1222 13.8745 19.1191C13.813 19.1161 13.7526 19.0998 13.6968 19.0713C13.6409 19.0427 13.5899 19.0022 13.5483 18.9521C13.507 18.9022 13.4748 18.8439 13.4546 18.7803C13.4343 18.7165 13.4267 18.6484 13.4312 18.5811C13.4356 18.5136 13.4526 18.4478 13.481 18.3877V18.3867L15.3296 14.2217L15.3589 14.1562H6.72119C6.63007 14.1562 6.54077 14.1269 6.46436 14.0723C6.38779 14.0174 6.32721 13.9389 6.2915 13.8467C6.25582 13.7543 6.24593 13.652 6.26416 13.5537C6.28241 13.4554 6.32756 13.3651 6.39307 13.2949L9.10791 10.3838L9.13721 10.3516L9.10791 10.3193L6.39307 7.40723C6.32771 7.33711 6.28242 7.24754 6.26416 7.14941C6.24591 7.0511 6.25581 6.94887 6.2915 6.85645C6.3272 6.76408 6.3877 6.68576 6.46436 6.63086C6.5408 6.57618 6.63001 6.5469 6.72119 6.54688ZM10.229 10.5449C10.2053 10.6063 10.1709 10.6624 10.1274 10.709L7.92529 13.0703L7.85205 13.1494H15.7749V13.0557H8.06787L10.1958 10.7725C10.2476 10.7169 10.289 10.6513 10.3169 10.5791L10.2729 10.5625L10.229 10.5449Z" fill="#0078E5" stroke="#1A1A1A" stroke-width="0.09375"/>
</svg>