<svg width="25" height="25" viewBox="0 0 25 25" fill="none" xmlns="http://www.w3.org/2000/svg">
<rect x="0.65625" y="0.5" width="24" height="24" rx="12" fill="#E84026" fill-opacity="0.2"/>
<path d="M16.1825 7.55948C16.573 7.16897 17.2061 7.16898 17.5966 7.55948C17.987 7.95001 17.9871 8.58305 17.5966 8.97354L14.0702 12.4999L17.5966 16.0263L17.6649 16.1024C17.9853 16.4952 17.9627 17.0742 17.5966 17.4403C17.2305 17.8064 16.6515 17.829 16.2587 17.5087L16.1825 17.4403L12.6562 13.914L9.12979 17.4403C8.7393 17.8308 8.10626 17.8308 7.71573 17.4403C7.32523 17.0498 7.32522 16.4168 7.71573 16.0263L11.2421 12.4999L7.71573 8.97354L7.64737 8.89737C7.32702 8.5046 7.34962 7.9256 7.71573 7.55948C8.08185 7.19337 8.66085 7.17077 9.05362 7.49112L9.12979 7.55948L12.6562 11.0858L16.1825 7.55948Z" fill="#D34F3B"/>
</svg>