<svg width="17" height="17" viewBox="0 0 17 17" fill="none" xmlns="http://www.w3.org/2000/svg">
<path d="M4.03141 13.1936C5.10824 14.1122 6.50507 14.6667 8.03141 14.6667C11.4372 14.6667 14.1981 11.9058 14.1981 8.50004C14.1981 5.09428 11.4372 2.33337 8.03141 2.33337C4.62566 2.33337 1.86475 5.09428 1.86475 8.50004C1.86475 9.58903 2.14702 10.6121 2.64239 11.5" stroke="#1A1A1A" stroke-linecap="round"/>
<path d="M6.36475 6.91129C6.36683 6.55972 6.47445 6.21688 6.67367 5.92719C6.87288 5.63751 7.15451 5.41433 7.48206 5.28658C7.8096 5.15884 8.16797 5.13241 8.51071 5.21072C8.85345 5.28904 9.16477 5.46848 9.40433 5.72581C9.64389 5.98314 9.80064 6.30648 9.85428 6.65394C9.90791 7.0014 9.85595 7.35696 9.70514 7.67455C9.55432 7.99213 9.3116 8.2571 9.00842 8.43512V8.43512C8.51971 8.72208 8.00478 9.15311 8.00478 9.71984V9.83329" stroke="#0078E5" stroke-linecap="round" stroke-linejoin="round"/>
<circle cx="8.03141" cy="11.6667" r="0.666667" fill="#0078E5"/>
</svg>