<svg width="24" height="24" viewBox="0 0 24 24" fill="none" xmlns="http://www.w3.org/2000/svg">
<path d="M12 18.75C11.59 18.75 11.25 18.41 11.25 18V15C11.25 14.59 11.59 14.25 12 14.25C12.41 14.25 12.75 14.59 12.75 15V18C12.75 18.41 12.41 18.75 12 18.75Z" fill="#666666"/>
<path d="M20.5 10.6033V18C20.5 19.3807 19.3807 20.5 18 20.5H6C4.61929 20.5 3.5 19.3807 3.5 18V10.6033C3.5 9.46118 4.05724 8.39092 4.99288 7.73597L5.87411 7.1191C6.25616 6.85167 6.30411 6.30411 5.97435 5.97435C5.71701 5.71701 5.31207 5.68155 5.01392 5.89025L4.13269 6.50712C2.79606 7.44276 2 8.97171 2 10.6033V18C2 20.2091 3.79086 22 6 22H18C20.2091 22 22 20.2091 22 18V10.6033C22 8.97171 21.2039 7.44276 19.8673 6.50712L14.2938 2.60569C12.9166 1.6416 11.0834 1.6416 9.70615 2.6057L7.92554 3.85212C7.54349 4.11956 7.49554 4.66712 7.8253 4.99688C8.08264 5.25422 8.48759 5.28967 8.78573 5.08097L10.5663 3.83454C11.4271 3.23198 12.5729 3.23198 13.4337 3.83454L19.0071 7.73596C19.9428 8.39091 20.5 9.46118 20.5 10.6033Z" fill="#666666"/>
</svg>