<svg width="172" height="68" viewBox="0 0 172 68" fill="none" xmlns="http://www.w3.org/2000/svg">
<path d="M88.8379 10.7328C86.7594 15.9798 71.0137 55.6127 67.387 64.7413C67.026 65.6498 67.6997 66.5562 68.6613 66.3799C73.3634 65.5178 85.197 61.4597 92.4161 42.357L105.694 7.89531C105.877 7.42036 106.547 7.414 106.726 7.89059C109.792 16.0696 125.741 58.6285 126.665 61.4953C127.687 64.6679 130.55 66.7148 133.923 66.6125C136.377 66.6125 138.626 65.3843 140.058 63.3375C141.387 61.2906 141.796 58.732 140.875 56.3781C140.875 56.3781 127.533 16.7976 124.722 10.5281C121.912 4.25864 118.384 0.293749 113.783 0.191406C111.023 0.191406 108.263 1.52188 106.116 4.08047C104.275 2.34063 102.026 1.31719 99.7771 1.31719C95.381 1.31719 91.1893 4.79688 88.8379 10.7328Z" fill="white"/>
<path fill-rule="evenodd" clip-rule="evenodd" d="M64.0533 18.8517C69.7638 32.7556 65.8207 49.9446 52.5132 55.57C49.9141 59.8657 46.4832 62.8318 43.6762 63.8546C40.4533 65.0819 37.2303 65.7979 33.4876 66.1047C29.329 66.5138 23.5069 66.6161 16.0214 66.6161C12.3827 66.6161 8.52184 66.6161 4.3703 66.6161C2.18703 66.6161 0.21875 64.7751 0.21875 62.6272V4.12348C0.21875 1.97562 1.88219 0.236863 4.06546 0.236863C9.05578 0.134585 19.2444 0.236863 26.7299 0.236863H34.7352C48.6534 0.191406 58.9008 6.30627 64.0533 18.8517ZM51.3696 54.3426C53.3449 50.9674 54.5925 46.774 54.5925 42.0691C54.5925 33.1708 51.3807 12.0804 25.7013 11.2622H19.5674C18.9436 11.2622 18.1119 11.2622 16.4484 11.2622C15.8246 11.2622 15.2009 11.569 14.785 11.9781C14.2652 12.3873 14.0572 13.0009 14.0572 13.6146V53.2952C14.0572 54.5226 15.0969 55.5453 16.4484 55.5453C16.6564 55.5453 16.9683 55.5453 17.2802 55.5453H21.9586C31.5234 55.5453 47.7308 55.57 51.3696 54.3426Z" fill="white"/>
<path d="M171.816 20.8572C171.816 15.9946 167.874 12.0527 163.011 12.0527H139.288C138.91 12.0527 138.604 12.3593 138.604 12.7375V12.7375C138.604 17.6001 142.545 21.542 147.408 21.542H171.131C171.509 21.542 171.816 21.2354 171.816 20.8572V20.8572Z" fill="white"/>
<path d="M159.269 0.191406C154.407 0.191406 150.465 4.13329 150.465 8.99586L150.465 32.719C150.465 33.0972 150.771 33.4038 151.15 33.4038V33.4038C156.012 33.4038 159.954 29.4619 159.954 24.5993L159.954 0.876197C159.954 0.497997 159.647 0.191406 159.269 0.191406V0.191406Z" fill="white"/>
</svg>
