<svg width="25" height="25" viewBox="0 0 25 25" fill="none" xmlns="http://www.w3.org/2000/svg">
<path d="M7.25945 7.90104C7.25945 4.91806 9.67763 2.49988 12.6606 2.49988C15.6436 2.49988 18.0618 4.91806 18.0618 7.90104V11.622C18.0618 14.6049 15.6436 17.0231 12.6606 17.0231C9.67763 17.0231 7.25945 14.605 7.25945 11.622V7.90104Z" fill="#99C9F5"/>
<path d="M5.96875 11.622C5.96875 11.2078 5.63296 10.872 5.21875 10.872C4.80454 10.872 4.46875 11.2078 4.46875 11.622C4.46875 14.1951 5.65037 16.252 7.24979 17.6515C8.61731 18.8481 10.3178 19.5895 11.9106 19.7705V21.8545C11.9106 22.2687 12.2464 22.6045 12.6606 22.6045C13.0748 22.6045 13.4106 22.2687 13.4106 21.8545V19.7705C15.0034 19.5895 16.7039 18.8481 18.0714 17.6515C19.6708 16.252 20.8525 14.1951 20.8525 11.622C20.8525 11.2078 20.5167 10.872 20.1025 10.872C19.6883 10.872 19.3525 11.2078 19.3525 11.622C19.3525 13.7 18.4078 15.364 17.0837 16.5227C15.7451 17.6939 14.0565 18.3138 12.6606 18.3138C11.2648 18.3138 9.57612 17.6939 8.23755 16.5227C6.91337 15.364 5.96875 13.7 5.96875 11.622Z" fill="#0078E5"/>
</svg>