<svg width="25" height="24" viewBox="0 0 25 24" fill="none" xmlns="http://www.w3.org/2000/svg">
<path fill-rule="evenodd" clip-rule="evenodd" d="M12.6606 1.99988C9.67763 1.99988 7.25945 4.41806 7.25945 7.40104V11.122C7.25945 14.105 9.67763 16.5231 12.6606 16.5231C15.6436 16.5231 18.0618 14.1049 18.0618 11.122V7.40104C18.0618 4.41806 15.6436 1.99988 12.6606 1.99988ZM8.75945 7.40104C8.75945 5.24649 10.5061 3.49988 12.6606 3.49988C14.8152 3.49988 16.5618 5.24649 16.5618 7.40104V11.122C16.5618 13.2765 14.8152 15.0231 12.6606 15.0231C10.5061 15.0231 8.75945 13.2765 8.75945 11.122V7.40104Z" fill="#040509"/>
<path d="M5.96875 11.122C5.96875 10.7078 5.63296 10.372 5.21875 10.372C4.80454 10.372 4.46875 10.7078 4.46875 11.122C4.46875 13.6951 5.65037 15.752 7.24979 17.1515C8.61731 18.3481 10.3178 19.0895 11.9106 19.2705V21.3545C11.9106 21.7687 12.2464 22.1045 12.6606 22.1045C13.0748 22.1045 13.4106 21.7687 13.4106 21.3545V19.2705C15.0034 19.0895 16.7039 18.3481 18.0714 17.1515C19.6708 15.752 20.8525 13.6951 20.8525 11.122C20.8525 10.7078 20.5167 10.372 20.1025 10.372C19.6883 10.372 19.3525 10.7078 19.3525 11.122C19.3525 13.2 18.4078 14.864 17.0837 16.0227C15.7451 17.1939 14.0565 17.8138 12.6606 17.8138C11.2648 17.8138 9.57612 17.1939 8.23755 16.0227C6.91337 14.864 5.96875 13.2 5.96875 11.122Z" fill="#040509"/>
</svg>