<svg width="44" height="43" viewBox="0 0 44 43" fill="none" xmlns="http://www.w3.org/2000/svg">
<path d="M10.0728 19.927C10.0728 19.1849 9.47114 18.5833 8.729 18.5833C7.98687 18.5833 7.38525 19.1849 7.38525 19.927C7.38525 24.5372 9.50233 28.2225 12.3679 30.7299C14.8181 32.8738 17.8648 34.2022 20.7186 34.5264V38.2603C20.7186 39.0025 21.3202 39.6041 22.0623 39.6041C22.8045 39.6041 23.4061 39.0025 23.4061 38.2603V34.5264C26.2599 34.2022 29.3066 32.8738 31.7567 30.7299C34.6223 28.2225 36.7394 24.5372 36.7394 19.927C36.7394 19.1849 36.1378 18.5833 35.3957 18.5833C34.6535 18.5833 34.0519 19.1849 34.0519 19.927C34.0519 23.6501 32.3595 26.6315 29.987 28.7074C27.5887 30.8059 24.5632 31.9166 22.0623 31.9166C19.5614 31.9166 16.536 30.8059 14.1377 28.7074C11.7652 26.6315 10.0728 23.6501 10.0728 19.927Z" fill="#0078E5"/>
<path opacity="0.4" d="M22.062 3.58337C27.4065 3.58337 31.7397 7.91566 31.7397 13.2601V19.9271C31.7396 25.2715 27.4064 29.6039 22.062 29.6039C16.7177 29.6038 12.3854 25.2714 12.3853 19.9271V13.2601C12.3853 7.91572 16.7176 3.58347 22.062 3.58337ZM21.73 11.1937C20.2589 11.1939 18.9253 11.7917 17.9624 12.7552C17.8392 12.8786 17.7128 13.0119 17.5864 13.1488V12.8314C17.586 12.3638 17.2065 11.9847 16.7388 11.9847C16.2712 11.985 15.8915 12.3639 15.8911 12.8314V15.4662C15.8911 15.934 16.271 16.3136 16.7388 16.3138H19.3735C19.8415 16.3138 20.2212 15.9342 20.2212 15.4662C20.2208 15.0279 19.8874 14.6669 19.4604 14.6234L19.3735 14.6195H18.5435C18.7519 14.3831 18.9646 14.1507 19.1616 13.9535C19.8197 13.295 20.7267 12.8892 21.73 12.889C23.7357 12.889 25.3616 14.5152 25.3618 16.5209C25.3616 18.5265 23.7357 20.1527 21.73 20.1527C20.0758 20.1524 18.678 19.0449 18.2407 17.5297L17.4263 17.765L16.6118 17.9994C17.2528 20.2206 19.3007 21.8468 21.73 21.847C24.6716 21.847 27.057 19.4625 27.0571 16.5209C27.057 13.5793 24.6716 11.1937 21.73 11.1937ZM18.2407 17.5297C18.1108 17.0803 17.6404 16.8209 17.1909 16.9506C16.7418 17.0805 16.4826 17.5501 16.6118 17.9994L18.2407 17.5297Z" fill="#0078E5"/>
</svg>