<svg width="25" height="25" viewBox="0 0 25 25" fill="none" xmlns="http://www.w3.org/2000/svg">
<path fill-rule="evenodd" clip-rule="evenodd" d="M10.1562 6C10.1562 7.10457 11.0517 8 12.1562 8C13.2608 8 14.1562 7.10457 14.1562 6C14.1562 4.89543 13.2608 4 12.1562 4C11.0517 4 10.1562 4.89543 10.1562 6ZM10.1562 12.5C10.1562 13.6046 11.0517 14.5 12.1562 14.5C13.2608 14.5 14.1562 13.6046 14.1562 12.5C14.1562 11.3955 13.2608 10.5 12.1562 10.5C11.0517 10.5 10.1562 11.3955 10.1562 12.5ZM10.1562 19C10.1562 20.1046 11.0517 21 12.1562 21C13.2608 21 14.1562 20.1046 14.1562 19C14.1562 17.8955 13.2608 17 12.1562 17C11.0517 17 10.1562 17.8955 10.1562 19Z" fill="#1A1A1A"/>
</svg>