<svg width="25" height="24" viewBox="0 0 25 24" fill="none" xmlns="http://www.w3.org/2000/svg">
<path opacity="0.4" d="M20.7188 8.25V18C20.7188 21 18.9288 22 16.7188 22H8.71875C6.50875 22 4.71875 21 4.71875 18V8.25C4.71875 5 6.50875 4.25 8.71875 4.25C8.71875 4.87 8.96872 5.43 9.37872 5.84C9.78872 6.25 10.3488 6.5 10.9688 6.5H14.4688C15.7087 6.5 16.7188 5.49 16.7188 4.25C18.9288 4.25 20.7188 5 20.7188 8.25Z" fill="#0078E5"/>
<path d="M16.7188 4.25C16.7188 5.49 15.7087 6.5 14.4688 6.5H10.9688C10.3487 6.5 9.78872 6.25 9.37872 5.84C8.96872 5.43 8.71875 4.87 8.71875 4.25C8.71875 3.01 9.72875 2 10.9688 2H14.4688C15.0887 2 15.6488 2.25 16.0588 2.66C16.4688 3.07 16.7188 3.63 16.7188 4.25Z" fill="#0078E5"/>
<path d="M12.7188 13.75H8.71875C8.30875 13.75 7.96875 13.41 7.96875 13C7.96875 12.59 8.30875 12.25 8.71875 12.25H12.7188C13.1287 12.25 13.4688 12.59 13.4688 13C13.4688 13.41 13.1287 13.75 12.7188 13.75Z" fill="#0078E5"/>
<path d="M16.7188 17.75H8.71875C8.30875 17.75 7.96875 17.41 7.96875 17C7.96875 16.59 8.30875 16.25 8.71875 16.25H16.7188C17.1287 16.25 17.4688 16.59 17.4688 17C17.4688 17.41 17.1287 17.75 16.7188 17.75Z" fill="#0078E5"/>
</svg>