<svg width="25" height="24" viewBox="0 0 25 24" fill="none" xmlns="http://www.w3.org/2000/svg">
<path d="M12.5625 8V10" stroke="#666666" stroke-width="1.5" stroke-miterlimit="10" stroke-linecap="round"/>
<path d="M3.88381 14.5347C3.14601 15.6923 3.73221 17.1915 5.09663 17.6185C9.92771 19.1272 15.1529 19.1272 19.984 17.6185C21.4394 17.163 21.9953 15.7777 21.1968 14.5347L19.9133 12.5232C19.5595 11.9728 19.2765 10.9955 19.2765 10.3598V9.07884C19.2765 5.57758 16.2647 2.75 12.5454 2.75C8.84627 2.75 5.81422 5.60604 5.81422 9.07884V10.3503C5.81422 10.5211 5.79401 10.7109 5.76369 10.9101" stroke="#666666" stroke-width="1.5" stroke-miterlimit="10" stroke-linecap="round"/>
<path d="M9.23258 18C9.23258 19.83 10.7326 21.33 12.5626 21.33C13.4726 21.33 14.3126 20.95 14.9126 20.35C15.5126 19.75 15.8926 18.91 15.8926 18" stroke="#666666" stroke-width="1.5" stroke-miterlimit="10"/>
</svg>