<svg width="36" height="36" viewBox="0 0 36 36" fill="none" xmlns="http://www.w3.org/2000/svg">
<g clip-path="url(#clip0_12562_70216)">
<path d="M11.4248 0.75H23.9893L34.3496 11.1104V31.3135C34.3495 33.444 32.4905 35.25 30.0957 35.25H11.3135C8.90809 35.25 7.04989 33.4431 7.0498 31.3135V4.68652C7.0498 2.57744 8.99713 0.750079 11.4248 0.75Z" fill="white" stroke="#DBDBDB" stroke-width="1.5"/>
<path d="M24.3229 7.344V0L35.0998 10.8H27.9152C24.6821 10.8 24.1732 8.496 24.3229 7.344Z" fill="#D4D4D8"/>
<rect x="0.899902" y="17.1016" width="23.5" height="13.5" rx="2.7" fill="#D92D20"/>
<path d="M7.40014 21.0091C8.11514 21.0091 8.67514 21.1841 9.08014 21.5341C9.49014 21.8841 9.69514 22.3691 9.69514 22.9891C9.69514 23.6041 9.49764 24.0866 9.10264 24.4366C8.70764 24.7866 8.16264 24.9616 7.46764 24.9616H6.47764V26.9491H5.34514V21.0091H7.40014ZM7.24264 23.9266C7.64764 23.9266 7.96514 23.8441 8.19514 23.6791C8.42514 23.5141 8.54014 23.2841 8.54014 22.9891C8.54014 22.6941 8.42514 22.4616 8.19514 22.2916C7.96514 22.1216 7.64764 22.0366 7.24264 22.0366H6.47764V23.9266H7.24264ZM10.5087 26.9491V21.0091H12.5487C13.1737 21.0091 13.7087 21.1291 14.1537 21.3691C14.6037 21.6091 14.9462 21.9516 15.1812 22.3966C15.4162 22.8416 15.5337 23.3691 15.5337 23.9791C15.5337 24.5841 15.4112 25.1116 15.1662 25.5616C14.9212 26.0066 14.5637 26.3491 14.0937 26.5891C13.6287 26.8291 13.0712 26.9491 12.4212 26.9491H10.5087ZM12.4287 25.8841C13.0487 25.8841 13.5262 25.7166 13.8612 25.3816C14.2012 25.0466 14.3712 24.5791 14.3712 23.9791C14.3712 23.3741 14.2087 22.9041 13.8837 22.5691C13.5587 22.2341 13.0937 22.0666 12.4887 22.0666H11.6412V25.8841H12.4287ZM17.5445 24.6166V26.9491H16.412V21.0091H20.1695V22.0666H17.5445V23.5516H19.982V24.6166H17.5445Z" fill="white"/>
</g>
<defs>
<clipPath id="clip0_12562_70216">
<rect width="36" height="36" fill="white"/>
</clipPath>
</defs>
</svg>
