<svg width="24" height="24" viewBox="0 0 24 24" fill="none" xmlns="http://www.w3.org/2000/svg">
<g clip-path="url(#clip0_12420_72533)">
<path d="M7.61719 0.5H15.9932L22.9004 7.40723V20.876C22.9001 22.2962 21.6609 23.5 20.0645 23.5H7.54199C5.93872 23.4998 4.70045 22.2955 4.7002 20.876V3.12402C4.70039 1.71807 5.99881 0.5 7.61719 0.5Z" fill="white" stroke="#DBDBDB"/>
<path d="M16.2156 4.896V0L23.4002 7.2H18.6104C16.4551 7.2 16.1158 5.664 16.2156 4.896Z" fill="#D4D4D8"/>
<rect x="0.600098" y="11.3984" width="16" height="9" rx="1.8" fill="#D92D20"/>
<path d="M5.10025 14.0034C5.57692 14.0034 5.95025 14.1201 6.22025 14.3534C6.49359 14.5868 6.63025 14.9101 6.63025 15.3234C6.63025 15.7334 6.49859 16.0551 6.23525 16.2884C5.97192 16.5218 5.60859 16.6384 5.14525 16.6384H4.48525V17.9634H3.73025V14.0034H5.10025ZM4.99525 15.9484C5.26525 15.9484 5.47692 15.8934 5.63025 15.7834C5.78359 15.6734 5.86025 15.5201 5.86025 15.3234C5.86025 15.1268 5.78359 14.9718 5.63025 14.8584C5.47692 14.7451 5.26525 14.6884 4.99525 14.6884H4.48525V15.9484H4.99525ZM7.17264 17.9634V14.0034H8.53264C8.9493 14.0034 9.30597 14.0834 9.60264 14.2434C9.90264 14.4034 10.131 14.6318 10.2876 14.9284C10.4443 15.2251 10.5226 15.5768 10.5226 15.9834C10.5226 16.3868 10.441 16.7384 10.2776 17.0384C10.1143 17.3351 9.87597 17.5634 9.56264 17.7234C9.25264 17.8834 8.88097 17.9634 8.44764 17.9634H7.17264ZM8.45264 17.2534C8.86597 17.2534 9.1843 17.1418 9.40764 16.9184C9.6343 16.6951 9.74764 16.3834 9.74764 15.9834C9.74764 15.5801 9.6393 15.2668 9.42264 15.0434C9.20597 14.8201 8.89597 14.7084 8.49264 14.7084H7.92764V17.2534H8.45264ZM11.8632 16.4084V17.9634H11.1082V14.0034H13.6132V14.7084H11.8632V15.6984H13.4882V16.4084H11.8632Z" fill="white"/>
</g>
<defs>
<clipPath id="clip0_12420_72533">
<rect width="24" height="24" fill="white"/>
</clipPath>
</defs>
</svg>
