<svg width="25" height="25" viewBox="0 0 25 25" fill="none" xmlns="http://www.w3.org/2000/svg">
<path fill-rule="evenodd" clip-rule="evenodd" d="M4.78125 6.5C3.67668 6.5 2.78125 7.39543 2.78125 8.5V10.8568C2.78125 11.74 3.36059 12.7662 4.20656 13.02L11.6319 15.25C12.3816 15.4749 13.1809 15.4749 13.9306 15.25L21.3559 13.02C22.2019 12.7662 22.7812 11.74 22.7812 10.8568L22.7813 8.5C22.7813 7.39543 21.8858 6.5 20.7813 6.5H4.78125ZM13.5312 10.3574C13.5312 9.94321 13.1955 9.60742 12.7812 9.60742C12.367 9.60742 12.0312 9.94321 12.0312 10.3574V12.0717C12.0312 12.4859 12.367 12.8217 12.7812 12.8217C13.1955 12.8217 13.5312 12.4859 13.5312 12.0717V10.3574Z" fill="#0078E5"/>
<path opacity="0.3" fill-rule="evenodd" clip-rule="evenodd" d="M3.78125 14.5864V18.0829C3.78125 20.5224 5.53955 22.5 7.70852 22.5H17.854C20.023 22.5 21.7812 20.5224 21.7812 18.0829V14.5863C21.7292 14.607 21.6765 14.6263 21.6231 14.6443L14.3328 16.6042C13.3207 16.9457 12.2416 16.9457 11.2295 16.6042L3.93917 14.6443C3.88591 14.6264 3.83326 14.607 3.78125 14.5864ZM3.78125 12.7365V12.0883L12.7811 14.7702L21.7812 12.0883V12.7363C21.6081 12.8763 21.4126 12.986 21.1999 13.0578L13.9096 15.25C13.1735 15.4984 12.3888 15.4984 11.6527 15.25L4.36235 13.0578C4.14979 12.986 3.95438 12.8764 3.78125 12.7365Z" fill="#0078E5"/>
<path d="M16.1144 6.92855V5.25C16.1144 4.14543 15.219 3.25 14.1144 3.25H11.4478C10.3432 3.25 9.44775 4.14543 9.44775 5.25V6.92855" stroke="#0078E5" stroke-width="1.5"/>
</svg>