<svg width="36" height="36" viewBox="0 0 36 36" fill="none" xmlns="http://www.w3.org/2000/svg">
<g clip-path="url(#clip0_12426_74571)">
<path d="M11.4248 0.75H23.9893L34.3496 11.1104V31.3135C34.3495 33.444 32.4905 35.25 30.0957 35.25H11.3135C8.90809 35.25 7.04989 33.4431 7.0498 31.3135V4.68652C7.0498 2.57744 8.99713 0.750079 11.4248 0.75Z" fill="white" stroke="#DBDBDB" stroke-width="1.5"/>
<path d="M24.3229 7.344V0L35.0998 10.8H27.9152C24.6821 10.8 24.1732 8.496 24.3229 7.344Z" fill="#D4D4D8"/>
<rect x="0.899902" y="17.1016" width="23.5" height="13.5" rx="2.7" fill="#E62E05"/>
<path d="M7.68944 21.0091C8.40444 21.0091 8.96444 21.1841 9.36944 21.5341C9.77944 21.8841 9.98444 22.3691 9.98444 22.9891C9.98444 23.6041 9.78694 24.0866 9.39194 24.4366C8.99694 24.7866 8.45194 24.9616 7.75694 24.9616H6.76694V26.9491H5.63444V21.0091H7.68944ZM7.53194 23.9266C7.93694 23.9266 8.25444 23.8441 8.48444 23.6791C8.71444 23.5141 8.82944 23.2841 8.82944 22.9891C8.82944 22.6941 8.71444 22.4616 8.48444 22.2916C8.25444 22.1216 7.93694 22.0366 7.53194 22.0366H6.76694V23.9266H7.53194ZM12.853 21.0091C13.568 21.0091 14.128 21.1841 14.533 21.5341C14.943 21.8841 15.148 22.3691 15.148 22.9891C15.148 23.6041 14.9505 24.0866 14.5555 24.4366C14.1605 24.7866 13.6155 24.9616 12.9205 24.9616H11.9305V26.9491H10.798V21.0091H12.853ZM12.6955 23.9266C13.1005 23.9266 13.418 23.8441 13.648 23.6791C13.878 23.5141 13.993 23.2841 13.993 22.9891C13.993 22.6941 13.878 22.4616 13.648 22.2916C13.418 22.1216 13.1005 22.0366 12.6955 22.0366H11.9305V23.9266H12.6955ZM18.3051 26.9491H17.1726V22.0666H15.4926V21.0091H19.9776V22.0666H18.3051V26.9491Z" fill="white"/>
</g>
<defs>
<clipPath id="clip0_12426_74571">
<rect width="36" height="36" fill="white"/>
</clipPath>
</defs>
</svg>
