<svg width="24" height="24" viewBox="0 0 24 24" fill="none" xmlns="http://www.w3.org/2000/svg">
<g clip-path="url(#clip0_12420_72509)">
<path d="M7.61719 0.5H15.9932L22.9004 7.40723V20.876C22.9001 22.2962 21.6609 23.5 20.0645 23.5H7.54199C5.93872 23.4998 4.70045 22.2955 4.7002 20.876V3.12402C4.70039 1.71807 5.99881 0.5 7.61719 0.5Z" fill="white" stroke="#DBDBDB"/>
<path d="M16.2156 4.896V0L23.4002 7.2H18.6104C16.4551 7.2 16.1158 5.664 16.2156 4.896Z" fill="#D4D4D8"/>
<rect x="0.600098" y="11.3984" width="19" height="9" rx="1.8" fill="#E62E05"/>
<path d="M5.00113 14.0034C5.4778 14.0034 5.85113 14.1201 6.12113 14.3534C6.39447 14.5868 6.53113 14.9101 6.53113 15.3234C6.53113 15.7334 6.39947 16.0551 6.13613 16.2884C5.8728 16.5218 5.50947 16.6384 5.04613 16.6384H4.38613V17.9634H3.63113V14.0034H5.00113ZM4.89613 15.9484C5.16613 15.9484 5.3778 15.8934 5.53113 15.7834C5.68447 15.6734 5.76113 15.5201 5.76113 15.3234C5.76113 15.1268 5.68447 14.9718 5.53113 14.8584C5.3778 14.7451 5.16613 14.6884 4.89613 14.6884H4.38613V15.9484H4.89613ZM8.44352 14.0034C8.92018 14.0034 9.29352 14.1201 9.56352 14.3534C9.83685 14.5868 9.97352 14.9101 9.97352 15.3234C9.97352 15.7334 9.84185 16.0551 9.57852 16.2884C9.31518 16.5218 8.95185 16.6384 8.48852 16.6384H7.82852V17.9634H7.07352V14.0034H8.44352ZM8.33852 15.9484C8.60852 15.9484 8.82018 15.8934 8.97352 15.7834C9.12685 15.6734 9.20352 15.5201 9.20352 15.3234C9.20352 15.1268 9.12685 14.9718 8.97352 14.8584C8.82018 14.7451 8.60852 14.6884 8.33852 14.6884H7.82852V15.9484H8.33852ZM12.0782 17.9634H11.3232V14.7084H10.2032V14.0034H13.1932V14.7084H12.0782V17.9634ZM15.4644 15.9034L16.8294 17.9634H15.9044L15.0144 16.5234L14.1644 17.9634H13.2344L14.5894 15.8734L13.3144 14.0034H14.2294L15.0494 15.2684L15.8344 14.0034H16.7494L15.4644 15.9034Z" fill="white"/>
</g>
<defs>
<clipPath id="clip0_12420_72509">
<rect width="24" height="24" fill="white"/>
</clipPath>
</defs>
</svg>
