<svg width="36" height="36" viewBox="0 0 36 36" fill="none" xmlns="http://www.w3.org/2000/svg">
<g clip-path="url(#clip0_12420_74082)">
<path d="M11.4248 0.75H23.9893L34.3496 11.1104V31.3135C34.3495 33.444 32.4905 35.25 30.0957 35.25H11.3135C8.90809 35.25 7.04989 33.4431 7.0498 31.3135V4.68652C7.0498 2.57744 8.99713 0.750079 11.4248 0.75Z" fill="white" stroke="#DBDBDB" stroke-width="1.5"/>
<path d="M24.3229 7.344V0L35.0998 10.8H27.9152C24.6821 10.8 24.1732 8.496 24.3229 7.344Z" fill="#D4D4D8"/>
<rect x="0.899902" y="17.1016" width="28.5" height="13.5" rx="2.7" fill="#E62E05"/>
<path d="M7.50146 21.0091C8.21646 21.0091 8.77646 21.1841 9.18146 21.5341C9.59146 21.8841 9.79646 22.3691 9.79646 22.9891C9.79646 23.6041 9.59896 24.0866 9.20396 24.4366C8.80896 24.7866 8.26396 24.9616 7.56896 24.9616H6.57896V26.9491H5.44646V21.0091H7.50146ZM7.34396 23.9266C7.74896 23.9266 8.06646 23.8441 8.29646 23.6791C8.52646 23.5141 8.64146 23.2841 8.64146 22.9891C8.64146 22.6941 8.52646 22.4616 8.29646 22.2916C8.06646 22.1216 7.74896 22.0366 7.34396 22.0366H6.57896V23.9266H7.34396ZM12.665 21.0091C13.38 21.0091 13.94 21.1841 14.345 21.5341C14.755 21.8841 14.96 22.3691 14.96 22.9891C14.96 23.6041 14.7625 24.0866 14.3675 24.4366C13.9725 24.7866 13.4275 24.9616 12.7325 24.9616H11.7425V26.9491H10.61V21.0091H12.665ZM12.5075 23.9266C12.9125 23.9266 13.23 23.8441 13.46 23.6791C13.69 23.5141 13.805 23.2841 13.805 22.9891C13.805 22.6941 13.69 22.4616 13.46 22.2916C13.23 22.1216 12.9125 22.0366 12.5075 22.0366H11.7425V23.9266H12.5075ZM18.1171 26.9491H16.9846V22.0666H15.3046V21.0091H19.7896V22.0666H18.1171V26.9491ZM23.1964 23.8591L25.2439 26.9491H23.8564L22.5214 24.7891L21.2464 26.9491H19.8514L21.8839 23.8141L19.9714 21.0091H21.3439L22.5739 22.9066L23.7514 21.0091H25.1239L23.1964 23.8591Z" fill="white"/>
</g>
<defs>
<clipPath id="clip0_12420_74082">
<rect width="36" height="36" fill="white"/>
</clipPath>
</defs>
</svg>
