<svg width="17" height="17" viewBox="0 0 17 17" fill="none" xmlns="http://www.w3.org/2000/svg">
<path d="M4.104 9.00004V3.66671C4.104 2.93033 4.70096 2.33337 5.43734 2.33337H12.4373C13.1737 2.33337 13.7707 2.93033 13.7707 3.66671L13.7707 9.00004M6.54976 4.91378H10.4185M6.54976 6.8396H8.93226" stroke="#1A1A1A" stroke-linecap="round"/>
<path d="M15.1043 13.3334V10C15.1043 9.63185 14.8059 9.33337 14.4377 9.33337H11.473C11.1048 9.33337 10.8063 9.63185 10.8063 10V10.3334C10.8063 10.7016 10.5079 11 10.1397 11H7.73564C7.36745 11 7.06898 10.7016 7.06898 10.3334V10C7.06898 9.63185 6.7705 9.33337 6.40231 9.33337H3.43766C3.06947 9.33337 2.771 9.63185 2.771 10V13.3334C2.771 14.0698 3.36795 14.6667 4.10433 14.6667H13.771C14.5074 14.6667 15.1043 14.0698 15.1043 13.3334Z" fill="#1A1A1A" stroke="#1A1A1A"/>
</svg>