<svg width="25" height="24" viewBox="0 0 25 24" fill="none" xmlns="http://www.w3.org/2000/svg">
<path d="M5.125 12.75V4.75C5.125 3.64543 6.02043 2.75 7.125 2.75H17.625C18.7296 2.75 19.625 3.64543 19.625 4.75L19.625 12.75M8.79363 6.62061H14.5968M8.79363 9.50935H12.3674" stroke="#1F1F1F" stroke-width="1.5" stroke-linecap="round"/>
<path d="M21.625 19.25V14.25C21.625 13.6977 21.1773 13.25 20.625 13.25H16.178C15.6257 13.25 15.178 13.6977 15.178 14.25V14.75C15.178 15.3023 14.7303 15.75 14.178 15.75H10.572C10.0197 15.75 9.57197 15.3023 9.57197 14.75V14.25C9.57197 13.6977 9.12426 13.25 8.57197 13.25H4.125C3.57272 13.25 3.125 13.6977 3.125 14.25V19.25C3.125 20.3546 4.02043 21.25 5.125 21.25H19.625C20.7296 21.25 21.625 20.3546 21.625 19.25Z" stroke="black" stroke-width="1.5"/>
</svg>