<svg width="25" height="25" viewBox="0 0 25 25" fill="none" xmlns="http://www.w3.org/2000/svg">
<path d="M5.125 13.25V5.25C5.125 4.14543 6.02043 3.25 7.125 3.25H17.625C18.7296 3.25 19.625 4.14543 19.625 5.25L19.625 13.25M8.79363 7.12061H14.5968M8.79363 10.0093H12.3674" stroke="#1A1A1A" stroke-width="1.5" stroke-linecap="round"/>
<path d="M21.625 19.75V14.75C21.625 14.1977 21.1773 13.75 20.625 13.75H16.178C15.6257 13.75 15.178 14.1977 15.178 14.75V15.25C15.178 15.8023 14.7303 16.25 14.178 16.25H10.572C10.0197 16.25 9.57197 15.8023 9.57197 15.25V14.75C9.57197 14.1977 9.12426 13.75 8.57197 13.75H4.125C3.57272 13.75 3.125 14.1977 3.125 14.75V19.75C3.125 20.8546 4.02043 21.75 5.125 21.75H19.625C20.7296 21.75 21.625 20.8546 21.625 19.75Z" fill="#1A1A1A" stroke="#1A1A1A" stroke-width="1.5"/>
</svg>