<svg width="25" height="24" viewBox="0 0 25 24" fill="none" xmlns="http://www.w3.org/2000/svg">
<path fill-rule="evenodd" clip-rule="evenodd" d="M12.664 5.21716C10.7898 5.21716 9.0951 5.97568 7.86613 7.20549C7.38281 7.68914 6.84844 8.28501 6.35468 8.85997H8.43763C9.12799 8.85997 9.68763 9.41961 9.68763 10.11C9.68763 10.8003 9.12799 11.36 8.43763 11.36H3.7124C3.02205 11.36 2.4624 10.8003 2.4624 10.11V5.38473C2.4624 4.69438 3.02205 4.13473 3.7124 4.13473C4.40276 4.13473 4.9624 4.69438 4.9624 5.38473V6.65319C5.33788 6.23022 5.72694 5.80941 6.09776 5.43833C7.77644 3.75849 10.0998 2.71716 12.664 2.71716C17.7908 2.71716 21.9469 6.87326 21.9469 12.0001C21.9469 17.1269 17.7908 21.283 12.664 21.283C8.43014 21.283 4.86128 18.4495 3.7441 14.578C3.5527 13.9147 3.93525 13.2218 4.59854 13.0304C5.26183 12.839 5.9547 13.2216 6.1461 13.8849C6.96278 16.715 9.57353 18.783 12.664 18.783C16.4101 18.783 19.4469 15.7461 19.4469 12.0001C19.4469 8.25397 16.4101 5.21716 12.664 5.21716Z" fill="#1F1F1F"/>
</svg>