<svg width="25" height="24" viewBox="0 0 25 24" fill="none" xmlns="http://www.w3.org/2000/svg">
<path d="M12.2134 11.8194C12.1138 12.2214 12.3589 12.6281 12.7609 12.7278C13.163 12.8275 13.5697 12.5824 13.6694 12.1804L12.2134 11.8194ZM21.2158 4.69629C21.6004 4.54245 21.7874 4.10597 21.6336 3.72139C21.4798 3.3368 21.0433 3.14974 20.6587 3.30357L21.2158 4.69629ZM20.4367 10.4998C20.4367 10.9141 20.7725 11.2498 21.1867 11.2499C21.6009 11.2499 21.9367 10.9141 21.9367 10.4999L20.4367 10.4998ZM21.1868 3.74951L21.9368 3.74952C21.9368 3.55061 21.8578 3.35984 21.7172 3.21919C21.5765 3.07853 21.3858 2.99951 21.1868 2.99951V3.74951ZM14.4367 2.99951C14.0224 2.99951 13.6867 3.3353 13.6867 3.74951C13.6867 4.16373 14.0224 4.49951 14.4367 4.49951V2.99951ZM12.9414 11.9999C13.6694 12.1804 13.6693 12.1807 13.6692 12.181C13.6692 12.181 13.6691 12.1813 13.6691 12.1815C13.669 12.1819 13.6689 12.1822 13.6688 12.1825C13.6687 12.1831 13.6686 12.1836 13.6685 12.1839C13.6683 12.1847 13.6682 12.1849 13.6683 12.1847C13.6684 12.1842 13.669 12.1819 13.6702 12.1777C13.6725 12.1693 13.677 12.1536 13.684 12.1308C13.6981 12.0854 13.7223 12.0119 13.7596 11.9133C13.8341 11.716 13.9607 11.4181 14.1625 11.0423C14.5659 10.2915 15.2716 9.22625 16.4676 8.03026L15.4069 6.9696C14.1029 8.2736 13.3107 9.45829 12.8411 10.3325C12.6065 10.7692 12.4529 11.1275 12.3563 11.3834C12.308 11.5113 12.2739 11.6136 12.2511 11.6873C12.2397 11.7241 12.2311 11.7538 12.225 11.7759C12.2219 11.787 12.2194 11.7962 12.2175 11.8034C12.2166 11.8071 12.2158 11.8102 12.2151 11.8129C12.2147 11.8142 12.2144 11.8154 12.2142 11.8165C12.214 11.817 12.2139 11.8175 12.2138 11.818C12.2137 11.8183 12.2136 11.8186 12.2136 11.8187C12.2135 11.8191 12.2134 11.8194 12.9414 11.9999ZM16.4676 8.03026C17.6654 6.83242 18.8638 5.99362 19.7606 5.45555C20.2085 5.18683 20.5795 4.9941 20.8352 4.86987C20.9631 4.80779 21.0619 4.7629 21.127 4.73427C21.1595 4.71995 21.1836 4.70971 21.1986 4.70342C21.2061 4.70027 21.2114 4.69811 21.2142 4.69693C21.2157 4.69634 21.2165 4.69599 21.2168 4.69588C21.2169 4.69583 21.2169 4.69584 21.2168 4.6959C21.2167 4.69594 21.2165 4.69599 21.2164 4.69605C21.2163 4.69608 21.2162 4.69614 21.2161 4.69616C21.216 4.69622 21.2158 4.69629 20.9373 3.99993C20.6587 3.30357 20.6585 3.30365 20.6583 3.30372C20.6583 3.30375 20.658 3.30384 20.6579 3.3039C20.6576 3.30402 20.6572 3.30416 20.6568 3.30432C20.6561 3.30463 20.6551 3.30501 20.6541 3.30544C20.6519 3.30632 20.6491 3.30744 20.6458 3.30882C20.6391 3.31157 20.6299 3.31534 20.6185 3.32012C20.5957 3.3297 20.5636 3.34338 20.5229 3.36129C20.4415 3.39711 20.3255 3.44988 20.1799 3.52061C19.8888 3.66201 19.4785 3.87553 18.9889 4.16931C18.0107 4.75624 16.7091 5.66744 15.4069 6.9696L16.4676 8.03026ZM21.9367 10.4999L21.9368 3.74952L20.4368 3.7495L20.4367 10.4998L21.9367 10.4999ZM21.1868 2.99951H14.4367V4.49951H21.1868V2.99951Z" fill="#0078E5"/>
<path d="M12.1875 3.75C12.1875 3.33579 11.8517 3 11.4375 3H7.6875C5.61643 3 3.9375 4.67893 3.9375 6.75V17.2508C3.9375 19.3218 5.61643 21.0008 7.6875 21.0008H18.1915C20.2626 21.0008 21.9415 19.3218 21.9415 17.2508V13.5C21.9415 13.0858 21.6057 12.75 21.1915 12.75C20.7773 12.75 20.4415 13.0858 20.4415 13.5V17.2508C20.4415 18.4934 19.4342 19.5008 18.1915 19.5008H7.6875C6.44486 19.5008 5.4375 18.4934 5.4375 17.2508V6.75C5.4375 5.50736 6.44486 4.5 7.6875 4.5H11.4375C11.8517 4.5 12.1875 4.16421 12.1875 3.75Z" fill="#1A1A1A"/>
</svg>