<svg width="24" height="24" viewBox="0 0 24 24" fill="none" xmlns="http://www.w3.org/2000/svg">
<path opacity="0.4" d="M20.7363 3.73933C20.5014 3.69671 20.2599 3.70931 20.0308 3.77614L12 6.23928V18.1097L20.0269 20.5732C20.1681 20.6147 20.3144 20.6357 20.4615 20.6357C20.8696 20.6357 21.2609 20.4736 21.5494 20.1851C21.8379 19.8966 22 19.5053 22 19.0972V5.25113C21.9997 5.01246 21.9439 4.77713 21.8369 4.56375C21.73 4.35037 21.5749 4.1648 21.3838 4.02171C21.1928 3.87863 20.9711 3.78195 20.7363 3.73933Z" fill="#0078E5"/>
<path d="M3.32715 9.70407L3.32324 9.70505C3.16366 9.753 3.02356 9.85086 2.92383 9.98434C2.82417 10.1177 2.77034 10.2798 2.76953 10.4463V13.9052C2.77082 14.0708 2.8248 14.2315 2.92383 14.3642C3.02358 14.4978 3.16355 14.5965 3.32324 14.6445L3.32715 14.6455L6.07129 15.4863V15.4873L11.2305 17.0683V7.27927L3.32715 9.70407Z" fill="#0078E5" stroke="#0078E5" stroke-width="1.53846"/>
<path opacity="0.4" d="M6.61523 19.0974C6.61524 19.3014 6.69656 19.4971 6.84082 19.6413C6.98507 19.7855 7.18079 19.8669 7.38477 19.8669H10.4619C10.6658 19.8668 10.8617 19.7855 11.0059 19.6413C11.15 19.4971 11.2305 19.3013 11.2305 19.0974V18.6784L6.61523 17.2624V19.0974Z" fill="#0078E5" stroke="#0078E5" stroke-width="1.53846"/>
</svg>
