<svg width="17" height="17" viewBox="0 0 17 17" fill="none" xmlns="http://www.w3.org/2000/svg">
<path d="M8.50049 1.83337C12.1822 1.83355 15.1665 4.81858 15.1665 8.50037C15.1663 12.182 12.1821 15.1662 8.50049 15.1664C4.8187 15.1664 1.83367 12.1821 1.8335 8.50037C1.8335 4.81847 4.81859 1.83337 8.50049 1.83337ZM8.49854 3.77869C6.25438 3.77888 4.44238 5.61276 4.44189 7.8656V10.2572C4.44192 11.5199 5.45793 12.551 6.72021 12.5511H9.09131C9.36721 12.5509 9.59129 12.3271 9.59131 12.0511C9.59098 11.7755 9.36702 11.5514 9.09131 11.5511H6.72021C6.05685 11.5511 5.50643 11.0372 5.44775 10.3744C5.55678 10.4522 5.68933 10.4993 5.8335 10.4994C6.20134 10.4991 6.50029 10.2012 6.50049 9.83337V7.83337C6.50025 7.46555 6.20131 7.16665 5.8335 7.16638C5.71194 7.16644 5.59859 7.20129 5.50049 7.25818C5.78043 5.84195 7.01963 4.77886 8.49854 4.77869C9.97666 4.77892 11.2148 5.84107 11.4956 7.25623C11.3985 7.20083 11.2872 7.16653 11.1675 7.16638C10.7994 7.16638 10.5007 7.46539 10.5005 7.83337V9.83337C10.5007 10.2014 10.7994 10.4994 11.1675 10.4994C11.318 10.4992 11.4554 10.447 11.5669 10.3627C11.6153 10.5882 11.8162 10.7572 12.0562 10.7572C12.3319 10.7568 12.5561 10.5331 12.5562 10.2572V7.8656C12.5557 5.6128 10.7426 3.77895 8.49854 3.77869Z" fill="#0078E5"/>
</svg>