<svg width="17" height="17" viewBox="0 0 17 17" fill="none" xmlns="http://www.w3.org/2000/svg">
<path d="M2.67725 5.66671C2.67725 5.48261 2.82648 5.33337 3.01058 5.33337H4.67725C4.86134 5.33337 5.01058 5.48261 5.01058 5.66671V13.8334C5.01058 14.0175 4.86134 14.1667 4.67725 14.1667H3.01058C2.82648 14.1667 2.67725 14.0175 2.67725 13.8334V11.1848V9.75004V8.31427V5.66671Z" fill="#0078E5" stroke="#0078E5" stroke-linejoin="round"/>
<path opacity="0.45" d="M13.634 6.95741C14.1249 6.95741 14.5504 7.13941 14.7904 7.46297C15.0304 7.77642 15.074 8.17074 14.9213 8.5853L14.5395 9.65962L13.7758 11.8083L13.394 12.8826C13.1976 13.5904 12.3685 14.1667 11.5393 14.1667H8.17708C7.55918 14.1667 7.55918 14.1667 6.91158 13.7926C6.26397 13.4185 4.84375 12.0556 4.84375 12.0556V7.46297C4.84375 7.46297 7.95486 4.05562 8.48466 3.5095C9.01446 2.96338 9.41197 2.87249 9.97926 3.0646C10.5793 3.25671 10.9829 3.89372 10.852 4.44984L10.2874 6.33051C10.2655 6.50241 10.3092 6.65408 10.4183 6.77541C10.5165 6.89675 10.6801 6.95741 10.8438 6.95741H13.634Z" fill="#0078E5" stroke="#0078E5" stroke-linecap="round"/>
<path d="M2.67725 5.66671C2.67725 5.48261 2.82648 5.33337 3.01058 5.33337H4.67725C4.86134 5.33337 5.01058 5.48261 5.01058 5.66671V13.8334C5.01058 14.0175 4.86134 14.1667 4.67725 14.1667H3.01058C2.82648 14.1667 2.67725 14.0175 2.67725 13.8334V11.1848V9.75004V8.31427V5.66671Z" fill="#0078E5" stroke="#0078E5" stroke-linejoin="round"/>
</svg>