<svg width="24" height="24" viewBox="0 0 24 24" fill="none" xmlns="http://www.w3.org/2000/svg">
<g clip-path="url(#clip0_12420_72569)">
<path d="M7.61719 0.5H15.9932L22.9004 7.40723V20.876C22.9001 22.2962 21.6609 23.5 20.0645 23.5H7.54199C5.93872 23.4998 4.70045 22.2955 4.7002 20.876V3.12402C4.70039 1.71807 5.99881 0.5 7.61719 0.5Z" fill="white" stroke="#DBDBDB"/>
<path d="M16.2156 4.896V0L23.4002 7.2H18.6104C16.4551 7.2 16.1158 5.664 16.2156 4.896Z" fill="#D4D4D8"/>
<rect x="0.600098" y="11.3984" width="19" height="9" rx="1.8" fill="#079455"/>
<path d="M5.53521 15.9034L6.90022 17.9634H5.97521L5.08521 16.5234L4.23521 17.9634H3.30521L4.66021 15.8734L3.38521 14.0034H4.30021L5.12021 15.2684L5.90521 14.0034H6.82021L5.53521 15.9034ZM8.08486 14.0034V17.2734H9.92486V17.9634H7.32986V14.0034H8.08486ZM11.6812 18.0334C11.3345 18.0334 11.0295 17.9501 10.7662 17.7834C10.5028 17.6168 10.3028 17.3901 10.1662 17.1034L10.8162 16.7834C10.8962 16.9668 11.0112 17.1068 11.1612 17.2034C11.3145 17.2968 11.4895 17.3434 11.6862 17.3434C11.8962 17.3434 12.0662 17.3001 12.1962 17.2134C12.3262 17.1268 12.3912 17.0151 12.3912 16.8784C12.3912 16.7851 12.3662 16.7068 12.3162 16.6434C12.2662 16.5801 12.1828 16.5218 12.0662 16.4684C11.9528 16.4151 11.7912 16.3601 11.5812 16.3034C11.3178 16.2268 11.0995 16.1518 10.9262 16.0784C10.7562 16.0018 10.6062 15.8851 10.4762 15.7284C10.3495 15.5718 10.2862 15.3668 10.2862 15.1134C10.2862 14.8868 10.3478 14.6851 10.4712 14.5084C10.5978 14.3284 10.7712 14.1884 10.9912 14.0884C11.2112 13.9851 11.4562 13.9334 11.7262 13.9334C12.3862 13.9334 12.8645 14.2234 13.1612 14.8034L12.5212 15.1334C12.3345 14.7934 12.0662 14.6234 11.7162 14.6234C11.5295 14.6234 11.3728 14.6668 11.2462 14.7534C11.1228 14.8401 11.0612 14.9451 11.0612 15.0684C11.0612 15.1751 11.0878 15.2618 11.1412 15.3284C11.1978 15.3951 11.2812 15.4518 11.3912 15.4984C11.5045 15.5451 11.6645 15.5968 11.8712 15.6534C12.1245 15.7201 12.3395 15.7934 12.5162 15.8734C12.6928 15.9501 12.8445 16.0668 12.9712 16.2234C13.0978 16.3801 13.1612 16.5851 13.1612 16.8384C13.1612 17.0784 13.0978 17.2884 12.9712 17.4684C12.8478 17.6484 12.6745 17.7884 12.4512 17.8884C12.2278 17.9851 11.9712 18.0334 11.6812 18.0334ZM15.5303 15.9034L16.8953 17.9634H15.9703L15.0803 16.5234L14.2303 17.9634H13.3003L14.6553 15.8734L13.3803 14.0034H14.2953L15.1153 15.2684L15.9003 14.0034H16.8153L15.5303 15.9034Z" fill="white"/>
</g>
<defs>
<clipPath id="clip0_12420_72569">
<rect width="24" height="24" fill="white"/>
</clipPath>
</defs>
</svg>
