<svg width="36" height="36" viewBox="0 0 36 36" fill="none" xmlns="http://www.w3.org/2000/svg">
<g clip-path="url(#clip0_12426_74833)">
<path d="M11.4248 0.75H23.9893L34.3496 11.1104V31.3135C34.3495 33.444 32.4905 35.25 30.0957 35.25H11.3135C8.90809 35.25 7.04989 33.4431 7.0498 31.3135V4.68652C7.0498 2.57744 8.99713 0.750079 11.4248 0.75Z" fill="white" stroke="#DBDBDB" stroke-width="1.5"/>
<path d="M24.3229 7.344V0L35.0998 10.8H27.9152C24.6821 10.8 24.1732 8.496 24.3229 7.344Z" fill="#D4D4D8"/>
<rect x="0.899902" y="17.1016" width="28.5" height="13.5" rx="2.7" fill="#079455"/>
<path d="M8.30258 23.8591L10.3501 26.9491H8.96258L7.62758 24.7891L6.35258 26.9491H4.95758L6.99008 23.8141L5.07758 21.0091H6.45008L7.68008 22.9066L8.85758 21.0091H10.2301L8.30258 23.8591ZM12.1271 21.0091V25.9141H14.8871V26.9491H10.9946V21.0091H12.1271ZM17.5215 27.0541C17.0015 27.0541 16.544 26.9291 16.149 26.6791C15.754 26.4291 15.454 26.0891 15.249 25.6591L16.224 25.1791C16.344 25.4541 16.5165 25.6641 16.7415 25.8091C16.9715 25.9491 17.234 26.0191 17.529 26.0191C17.844 26.0191 18.099 25.9541 18.294 25.8241C18.489 25.6941 18.5865 25.5266 18.5865 25.3216C18.5865 25.1816 18.549 25.0641 18.474 24.9691C18.399 24.8741 18.274 24.7866 18.099 24.7066C17.929 24.6266 17.6865 24.5441 17.3715 24.4591C16.9765 24.3441 16.649 24.2316 16.389 24.1216C16.134 24.0066 15.909 23.8316 15.714 23.5966C15.524 23.3616 15.429 23.0541 15.429 22.6741C15.429 22.3341 15.5215 22.0316 15.7065 21.7666C15.8965 21.4966 16.1565 21.2866 16.4865 21.1366C16.8165 20.9816 17.184 20.9041 17.589 20.9041C18.579 20.9041 19.2965 21.3391 19.7415 22.2091L18.7815 22.7041C18.5015 22.1941 18.099 21.9391 17.574 21.9391C17.294 21.9391 17.059 22.0041 16.869 22.1341C16.684 22.2641 16.5915 22.4216 16.5915 22.6066C16.5915 22.7666 16.6315 22.8966 16.7115 22.9966C16.7965 23.0966 16.9215 23.1816 17.0865 23.2516C17.2565 23.3216 17.4965 23.3991 17.8065 23.4841C18.1865 23.5841 18.509 23.6941 18.774 23.8141C19.039 23.9291 19.2665 24.1041 19.4565 24.3391C19.6465 24.5741 19.7415 24.8816 19.7415 25.2616C19.7415 25.6216 19.6465 25.9366 19.4565 26.2066C19.2715 26.4766 19.0115 26.6866 18.6765 26.8366C18.3415 26.9816 17.9565 27.0541 17.5215 27.0541ZM23.2953 23.8591L25.3428 26.9491H23.9553L22.6203 24.7891L21.3453 26.9491H19.9503L21.9828 23.8141L20.0703 21.0091H21.4428L22.6728 22.9066L23.8503 21.0091H25.2228L23.2953 23.8591Z" fill="white"/>
</g>
<defs>
<clipPath id="clip0_12426_74833">
<rect width="36" height="36" fill="white"/>
</clipPath>
</defs>
</svg>
